<svg width="14" height="12" viewBox="0 0 14 12" fill="none" xmlns="http://www.w3.org/2000/svg">
<path d="M13.7062 6.69726L8.70619 11.6973C8.51244 11.8941 8.25619 11.991 7.99994 11.991C7.74369 11.991 7.48807 11.8934 7.29307 11.698C6.90244 11.3074 6.90244 10.6746 7.29307 10.284L10.5874 6.99101H0.999949C0.447762 6.99101 0 6.54414 0 5.99101C0 5.43789 0.447762 4.99101 0.999949 4.99101H10.5874L7.29369 1.69726C6.90307 1.30664 6.90307 0.673828 7.29369 0.283203C7.68432 -0.107422 8.31713 -0.107422 8.70776 0.283203L13.7078 5.2832C14.0968 5.67539 14.0968 6.30664 13.7062 6.69726Z" fill="#601B2A"/>
</svg>
