<svg width="17" height="16" viewBox="0 0 17 16" fill="none" xmlns="http://www.w3.org/2000/svg">
<g id="Tail Icon" clip-path="url(#clip0_9772_6318)">
<path id="Vector" d="M15.5 11H11.3281L9.91406 12.4141C9.5375 12.7906 9.03438 13 8.5 13C7.96562 13 7.46375 12.792 7.08594 12.4141L5.67188 11H1.5C0.947812 11 0.5 11.4478 0.5 12V15C0.5 15.5522 0.947812 16 1.5 16H15.5C16.0522 16 16.5 15.5522 16.5 15V12C16.5 11.4469 16.0531 11 15.5 11ZM14 14.25C13.5875 14.25 13.25 13.9125 13.25 13.5C13.25 13.0875 13.5875 12.75 14 12.75C14.4125 12.75 14.75 13.0875 14.75 13.5C14.75 13.9125 14.4125 14.25 14 14.25ZM7.79375 11.7063C7.9875 11.9031 8.24375 12 8.5 12C8.75625 12 9.01188 11.9023 9.20687 11.707L13.2069 7.70703C13.5972 7.31641 13.5972 6.68359 13.2069 6.29297C12.8162 5.90234 12.1831 5.90234 11.7928 6.29297L9.5 8.5875V1C9.5 0.447812 9.05219 0 8.5 0C7.94688 0 7.5 0.447812 7.5 1V8.5875L5.20625 6.29375C4.81594 5.90312 4.18281 5.90312 3.79219 6.29375C3.40188 6.68437 3.40188 7.31719 3.79219 7.70781L7.79375 11.7063Z" fill="#2563EB"/>
</g>
<defs>
<clipPath id="clip0_9772_6318">
<rect width="16" height="16" fill="white" transform="translate(0.5)"/>
</clipPath>
</defs>
</svg>
