<svg width="13" height="14" viewBox="0 0 13 14" fill="none" xmlns="http://www.w3.org/2000/svg">
<path d="M12.3828 2.88281C12.8711 2.39453 12.8711 1.60156 12.3828 1.11328C11.8945 0.625 11.1016 0.625 10.6133 1.11328L6.5 5.23047L2.38281 1.11719C1.89453 0.628906 1.10156 0.628906 0.613281 1.11719C0.125 1.60547 0.125 2.39844 0.613281 2.88672L4.73047 7L0.617188 11.1172C0.128906 11.6055 0.128906 12.3984 0.617188 12.8867C1.10547 13.375 1.89844 13.375 2.38672 12.8867L6.5 8.76953L10.6172 12.8828C11.1055 13.3711 11.8984 13.3711 12.3867 12.8828C12.875 12.3945 12.875 11.6016 12.3867 11.1133L8.26953 7L12.3828 2.88281Z" fill="black"/>
</svg>
