<svg width="18" height="16" viewBox="0 0 18 16" fill="none" xmlns="http://www.w3.org/2000/svg">
<path d="M1.26191 3.38707H16.7381C17.0669 3.38707 17.3333 3.12059 17.3333 2.79183V1.30373C17.3333 0.974977 17.0669 0.708496 16.7381 0.708496H1.26191C0.933152 0.708496 0.666672 0.974977 0.666672 1.30373V2.79183C0.666672 3.12059 0.933152 3.38707 1.26191 3.38707ZM1.26191 9.33945H16.7381C17.0669 9.33945 17.3333 9.07297 17.3333 8.74421V7.25612C17.3333 6.92736 17.0669 6.66088 16.7381 6.66088H1.26191C0.933152 6.66088 0.666672 6.92736 0.666672 7.25612V8.74421C0.666672 9.07297 0.933152 9.33945 1.26191 9.33945ZM1.26191 15.2918H16.7381C17.0669 15.2918 17.3333 15.0253 17.3333 14.6966V13.2085C17.3333 12.8797 17.0669 12.6133 16.7381 12.6133H1.26191C0.933152 12.6133 0.666672 12.8797 0.666672 13.2085V14.6966C0.666672 15.0253 0.933152 15.2918 1.26191 15.2918Z" fill="black"/>
</svg>
