<svg width="24" height="25" viewBox="0 0 24 25" fill="none" xmlns="http://www.w3.org/2000/svg">
<g id="schedule">
<mask id="mask0_16238_10676" style="mask-type:alpha" maskUnits="userSpaceOnUse" x="0" y="0" width="24" height="25">
<rect id="Bounding box" y="0.5" width="24" height="24" fill="#D9D9D9"/>
</mask>
<g mask="url(#mask0_16238_10676)">
<path id="schedule_2" d="M15.4731 17.0269L16.5269 15.9731L12.75 12.1959V7.49998H11.25V12.8038L15.4731 17.0269ZM12.0016 22C10.6877 22 9.45268 21.7506 8.29655 21.252C7.1404 20.7533 6.13472 20.0765 5.2795 19.2217C4.42427 18.3669 3.74721 17.3616 3.24833 16.206C2.74944 15.0504 2.5 13.8156 2.5 12.5017C2.5 11.1877 2.74933 9.95268 3.248 8.79655C3.74667 7.6404 4.42342 6.63472 5.27825 5.7795C6.1331 4.92427 7.13834 4.24721 8.29398 3.74833C9.44959 3.24944 10.6844 3 11.9983 3C13.3122 3 14.5473 3.24933 15.7034 3.748C16.8596 4.24667 17.8652 4.92342 18.7205 5.77825C19.5757 6.6331 20.2527 7.63834 20.7516 8.79398C21.2505 9.94959 21.5 11.1844 21.5 12.4983C21.5 13.8122 21.2506 15.0473 20.752 16.2034C20.2533 17.3596 19.5765 18.3652 18.7217 19.2205C17.8669 20.0757 16.8616 20.7527 15.706 21.2516C14.5504 21.7505 13.3156 22 12.0016 22ZM12 20.5C14.2166 20.5 16.1041 19.7208 17.6625 18.1625C19.2208 16.6041 20 14.7166 20 12.5C20 10.2833 19.2208 8.39581 17.6625 6.83748C16.1041 5.27914 14.2166 4.49998 12 4.49998C9.78331 4.49998 7.89581 5.27914 6.33748 6.83748C4.77914 8.39581 3.99998 10.2833 3.99998 12.5C3.99998 14.7166 4.77914 16.6041 6.33748 18.1625C7.89581 19.7208 9.78331 20.5 12 20.5Z" fill="#601B2A"/>
</g>
</g>
</svg>
