<svg width="24" height="25" viewBox="0 0 24 25" fill="none" xmlns="http://www.w3.org/2000/svg">
<g id="calendar_month">
<mask id="mask0_16238_10705" style="mask-type:alpha" maskUnits="userSpaceOnUse" x="0" y="0" width="24" height="25">
<rect id="Bounding box" y="0.5" width="24" height="24" fill="#D9D9D9"/>
</mask>
<g mask="url(#mask0_16238_10705)">
<path id="calendar_month_2" d="M5.3077 22.0001C4.80257 22.0001 4.375 21.8251 4.025 21.4751C3.675 21.1251 3.5 20.6975 3.5 20.1924V6.80784C3.5 6.30271 3.675 5.87514 4.025 5.52514C4.375 5.17514 4.80257 5.00014 5.3077 5.00014H6.69233V2.88477H8.23075V5.00014H15.8077V2.88477H17.3076V5.00014H18.6923C19.1974 5.00014 19.625 5.17514 19.975 5.52514C20.325 5.87514 20.5 6.30271 20.5 6.80784V20.1924C20.5 20.6975 20.325 21.1251 19.975 21.4751C19.625 21.8251 19.1974 22.0001 18.6923 22.0001H5.3077ZM5.3077 20.5001H18.6923C18.7692 20.5001 18.8397 20.4681 18.9038 20.404C18.9679 20.3398 19 20.2693 19 20.1924V10.8078H4.99997V20.1924C4.99997 20.2693 5.03202 20.3398 5.09612 20.404C5.16024 20.4681 5.23077 20.5001 5.3077 20.5001ZM4.99997 9.30787H19V6.80784C19 6.73091 18.9679 6.66038 18.9038 6.59627C18.8397 6.53217 18.7692 6.50012 18.6923 6.50012H5.3077C5.23077 6.50012 5.16024 6.53217 5.09612 6.59627C5.03202 6.66038 4.99997 6.73091 4.99997 6.80784V9.30787ZM12 14.577C11.7551 14.577 11.5465 14.4908 11.374 14.3184C11.2016 14.146 11.1154 13.9373 11.1154 13.6924C11.1154 13.4476 11.2016 13.2389 11.374 13.0665C11.5465 12.8941 11.7551 12.8078 12 12.8078C12.2448 12.8078 12.4535 12.8941 12.6259 13.0665C12.7984 13.2389 12.8846 13.4476 12.8846 13.6924C12.8846 13.9373 12.7984 14.146 12.6259 14.3184C12.4535 14.4908 12.2448 14.577 12 14.577ZM7.99998 14.577C7.75511 14.577 7.54646 14.4908 7.37403 14.3184C7.20159 14.146 7.11538 13.9373 7.11538 13.6924C7.11538 13.4476 7.20159 13.2389 7.37403 13.0665C7.54646 12.8941 7.75511 12.8078 7.99998 12.8078C8.24484 12.8078 8.45349 12.8941 8.62593 13.0665C8.79836 13.2389 8.88458 13.4476 8.88458 13.6924C8.88458 13.9373 8.79836 14.146 8.62593 14.3184C8.45349 14.4908 8.24484 14.577 7.99998 14.577ZM16 14.577C15.7551 14.577 15.5465 14.4908 15.374 14.3184C15.2016 14.146 15.1154 13.9373 15.1154 13.6924C15.1154 13.4476 15.2016 13.2389 15.374 13.0665C15.5465 12.8941 15.7551 12.8078 16 12.8078C16.2448 12.8078 16.4535 12.8941 16.6259 13.0665C16.7984 13.2389 16.8846 13.4476 16.8846 13.6924C16.8846 13.9373 16.7984 14.146 16.6259 14.3184C16.4535 14.4908 16.2448 14.577 16 14.577ZM12 18.5001C11.7551 18.5001 11.5465 18.4139 11.374 18.2415C11.2016 18.069 11.1154 17.8604 11.1154 17.6155C11.1154 17.3706 11.2016 17.162 11.374 16.9896C11.5465 16.8171 11.7551 16.7309 12 16.7309C12.2448 16.7309 12.4535 16.8171 12.6259 16.9896C12.7984 17.162 12.8846 17.3706 12.8846 17.6155C12.8846 17.8604 12.7984 18.069 12.6259 18.2415C12.4535 18.4139 12.2448 18.5001 12 18.5001ZM7.99998 18.5001C7.75511 18.5001 7.54646 18.4139 7.37403 18.2415C7.20159 18.069 7.11538 17.8604 7.11538 17.6155C7.11538 17.3706 7.20159 17.162 7.37403 16.9896C7.54646 16.8171 7.75511 16.7309 7.99998 16.7309C8.24484 16.7309 8.45349 16.8171 8.62593 16.9896C8.79836 17.162 8.88458 17.3706 8.88458 17.6155C8.88458 17.8604 8.79836 18.069 8.62593 18.2415C8.45349 18.4139 8.24484 18.5001 7.99998 18.5001ZM16 18.5001C15.7551 18.5001 15.5465 18.4139 15.374 18.2415C15.2016 18.069 15.1154 17.8604 15.1154 17.6155C15.1154 17.3706 15.2016 17.162 15.374 16.9896C15.5465 16.8171 15.7551 16.7309 16 16.7309C16.2448 16.7309 16.4535 16.8171 16.6259 16.9896C16.7984 17.162 16.8846 17.3706 16.8846 17.6155C16.8846 17.8604 16.7984 18.069 16.6259 18.2415C16.4535 18.4139 16.2448 18.5001 16 18.5001Z" fill="#601B2A"/>
</g>
</g>
</svg>
