<svg xmlns="http://www.w3.org/2000/svg" width="525" height="174" viewBox="0 0 525 174">
<g>
<path d="M 106.50 145.59 C95.37,150.86 94.49,150.81 81.48,144.24 C68.50,137.69 56.14,125.86 50.48,114.55 C48.04,109.69 48.00,109.21 48.00,84.77 C48.00,57.03 48.33,55.28 54.35,50.68 C59.46,46.78 71.32,41.35 78.95,39.42 C83.87,38.17 88.51,37.88 98.45,38.22 C110.16,38.61 112.32,38.98 119.50,41.81 C129.25,45.66 137.44,51.04 140.05,55.31 C141.84,58.25 141.99,60.51 142.00,84.05 C142.00,109.26 141.97,109.68 139.52,114.59 C133.49,126.68 120.32,139.05 106.50,145.59 ZM 95.67 93.33 C96.03,93.70 104.36,94.00 114.17,94.00 L 132.00 94.00 L 132.00 60.90 L 129.25 58.50 C122.60,52.69 107.83,47.04 99.25,47.01 L 95.00 47.00 L 95.00 69.83 C95.00,82.39 95.30,92.97 95.67,93.33 ZM 348.33 85.70 C344.83,88.37 344.07,88.52 332.08,88.83 C321.31,89.12 319.76,88.97 321.30,87.81 C322.93,86.59 323.07,84.94 322.80,71.22 L 322.50 56.00 L 333.50 56.00 C342.71,56.01 345.03,56.33 347.76,57.99 C352.58,60.93 354.99,65.54 355.00,71.80 C355.00,78.22 353.19,81.99 348.33,85.70 ZM 252.01 71.27 C249.74,78.55 247.56,85.58 247.15,86.89 C246.51,88.94 245.73,87.79 241.54,78.64 C238.86,72.79 236.41,68.00 236.09,68.01 C235.42,68.02 228.00,85.42 228.00,86.98 C228.00,87.54 227.62,88.00 227.17,88.00 C226.71,88.00 224.17,82.04 221.52,74.75 C218.88,67.46 216.09,60.26 215.33,58.75 L 213.95 56.00 L 219.03 56.00 C221.83,56.00 223.88,56.39 223.58,56.87 C223.07,57.69 227.96,72.29 229.14,73.48 C229.45,73.79 231.41,69.98 233.49,65.02 C235.57,60.06 237.67,56.00 238.16,56.00 C238.64,56.00 240.90,60.06 243.17,65.02 C245.44,69.98 247.56,73.77 247.88,73.45 C249.04,72.29 252.82,57.70 252.31,56.37 C251.94,55.39 252.68,55.00 254.89,55.00 C257.89,55.00 259.00,56.26 257.06,57.46 C256.55,57.78 254.27,64.00 252.01,71.27 ZM 291.18 87.72 C292.03,88.74 290.98,89.00 286.05,89.00 C280.31,89.00 279.98,88.88 281.50,87.36 C282.90,85.95 283.09,83.54 282.82,70.36 C282.64,61.91 282.66,55.00 282.86,55.00 C283.06,55.00 288.07,59.72 294.00,65.50 C299.93,71.28 305.24,76.00 305.80,76.00 C306.45,76.00 306.62,72.47 306.26,66.00 L 305.71 56.00 L 310.48 56.00 C314.52,56.00 315.06,56.22 314.05,57.44 C313.20,58.46 312.95,63.18 313.18,73.44 C313.35,81.45 313.13,88.00 312.69,88.00 C312.24,88.00 307.18,83.43 301.43,77.84 C295.69,72.25 290.70,67.96 290.36,68.31 C289.31,69.35 290.03,86.33 291.18,87.72 ZM 331.67 86.33 C332.03,86.70 333.58,87.00 335.10,87.00 C342.97,87.00 346.99,82.00 347.00,72.20 C347.00,61.78 343.96,58.00 335.57,58.00 L 331.00 58.00 L 331.00 71.83 C331.00,79.44 331.30,85.97 331.67,86.33 ZM 377.75 87.92 C379.06,88.68 377.76,88.95 372.55,88.97 C367.14,88.99 365.87,88.73 366.80,87.80 C367.50,87.10 368.00,83.76 368.00,79.84 C368.00,73.57 367.66,72.52 363.43,65.54 C360.92,61.40 357.88,57.29 356.68,56.40 C354.59,54.85 354.71,54.81 359.39,55.39 C362.08,55.73 365.14,56.00 366.20,56.00 C367.25,56.00 367.86,56.42 367.55,56.93 C366.94,57.91 373.04,69.95 374.15,69.98 C375.50,70.02 381.15,58.67 380.68,56.87 C380.25,55.25 380.78,55.00 384.65,55.00 L 389.11 55.00 L 386.69 57.25 C385.36,58.49 382.41,62.53 380.13,66.23 C376.33,72.42 376.00,73.50 376.00,79.93 C376.00,85.51 376.35,87.10 377.75,87.92 ZM 431.60 86.94 C422.06,92.84 407.19,88.16 403.91,78.22 C402.38,73.59 403.27,65.47 405.67,62.18 C408.85,57.81 415.50,55.00 422.65,55.00 C426.07,55.00 430.02,55.44 431.43,55.98 C433.65,56.82 433.99,57.53 433.94,61.23 C433.89,64.60 433.69,65.06 433.02,63.39 C431.66,60.02 427.07,57.00 423.32,57.00 C415.39,57.00 411.00,62.34 411.00,72.00 C411.00,82.08 415.02,87.00 423.27,87.00 C428.94,87.00 432.62,84.10 433.71,78.78 L 434.38 75.50 L 435.10 78.91 C436.02,83.32 435.49,84.53 431.60,86.94 ZM 511.75 87.92 C513.06,88.68 511.76,88.95 506.55,88.97 C501.14,88.99 499.87,88.73 500.80,87.80 C501.50,87.10 502.00,83.76 502.00,79.82 C502.00,73.64 501.63,72.43 497.89,66.27 C495.63,62.55 493.08,58.71 492.23,57.75 C490.78,56.11 491.04,56.00 496.40,56.00 C499.69,56.00 501.87,56.40 501.54,56.93 C501.22,57.45 502.61,60.85 504.61,64.50 L 508.26 71.13 L 511.70 64.91 C513.60,61.49 514.94,57.86 514.67,56.85 C514.29,55.39 514.75,55.00 516.84,55.02 C519.50,55.03 523.79,56.95 521.24,56.98 C520.54,56.99 517.74,60.49 515.00,64.75 C510.23,72.19 510.03,72.79 510.02,79.70 C510.00,85.51 510.34,87.10 511.75,87.92 ZM 477.75 87.92 C479.06,88.68 477.76,88.95 472.55,88.97 C467.14,88.99 465.87,88.73 466.80,87.80 C467.62,86.98 468.00,82.09 468.00,72.30 L 468.00 58.00 L 463.55 58.00 C460.37,58.00 458.81,58.50 458.08,59.75 C457.22,61.22 457.06,61.01 457.03,58.48 L 457.00 55.46 L 472.31 55.48 L 487.63 55.50 L 487.18 57.82 C486.87,59.47 486.43,59.83 485.67,59.07 C485.08,58.48 482.67,58.00 480.30,58.00 L 476.00 58.00 L 476.00 72.45 C476.00,85.16 476.21,87.02 477.75,87.92 ZM 251.08 123.08 C246.96,127.19 241.04,127.19 236.92,123.08 C233.21,119.36 233.08,115.24 236.56,111.11 C239.52,107.59 244.64,106.23 248.14,108.03 C254.56,111.32 255.91,118.24 251.08,123.08 ZM 432.08 123.08 C423.67,131.48 409.78,120.35 417.40,111.31 C420.65,107.44 425.73,106.29 429.94,108.47 C435.85,111.53 436.84,118.31 432.08,123.08 ZM 452.64 87.73 C454.11,88.80 453.23,89.00 447.00,89.00 C440.77,89.00 439.89,88.80 441.36,87.73 C442.91,86.59 443.07,84.77 442.80,71.27 L 442.79 70.71 C442.58,60.38 442.51,56.77 444.10,55.74 C444.96,55.19 446.29,55.39 448.35,55.69 L 448.56 55.72 L 451.50 56.15 L 451.20 71.30 C450.93,84.77 451.09,86.59 452.64,87.73 ZM 91.95 34.36 C87.80,34.66 83.72,35.17 82.88,35.49 C81.88,35.88 80.95,35.19 80.18,33.49 C78.61,30.04 78.62,30.00 81.50,30.00 C82.88,30.00 84.00,30.45 84.00,31.00 C84.00,31.55 84.47,32.00 85.04,32.00 C85.75,32.00 85.75,31.40 85.04,30.07 C84.47,29.01 84.28,27.43 84.62,26.56 C84.95,25.69 84.73,24.38 84.12,23.65 C82.91,22.18 83.60,21.00 85.67,21.00 C86.40,21.00 87.00,21.91 87.00,23.03 C87.00,24.15 87.68,25.32 88.50,25.64 C89.32,25.95 90.00,26.84 90.00,27.61 C90.00,28.37 90.45,29.00 91.00,29.00 C91.55,29.00 92.00,28.13 92.00,27.06 C92.00,25.99 92.47,24.83 93.05,24.47 C93.62,24.11 93.96,22.86 93.80,21.69 C93.60,20.25 94.12,19.43 95.38,19.18 C96.94,18.87 97.16,19.23 96.65,21.26 C95.79,24.70 98.68,27.33 101.50,25.67 C102.60,25.03 103.50,23.83 103.50,23.01 C103.50,22.20 104.29,21.38 105.25,21.19 C106.32,20.98 107.00,21.47 107.00,22.43 C107.00,23.29 106.50,24.00 105.88,24.00 C105.23,24.00 105.00,24.90 105.33,26.16 C105.64,27.35 105.45,29.15 104.91,30.16 C104.25,31.40 104.27,32.00 104.96,32.00 C105.53,32.00 106.00,31.55 106.00,31.00 C106.00,30.45 107.12,30.00 108.50,30.00 C109.91,30.00 110.89,29.48 110.75,28.81 C110.61,28.15 111.29,27.45 112.25,27.24 C114.70,26.70 114.43,28.48 111.65,31.26 C110.35,32.56 109.12,34.13 108.90,34.76 C108.60,35.61 107.32,35.63 104.00,34.86 C101.53,34.28 96.10,34.06 91.95,34.36 ZM 273.64 87.73 C275.11,88.80 274.35,89.00 268.62,89.00 C262.47,89.00 262.00,88.86 263.43,87.43 C265.87,84.99 265.72,59.48 263.25,56.66 C261.58,54.75 261.58,54.69 263.33,55.33 C264.34,55.70 266.81,56.00 268.83,56.00 L 272.50 56.00 L 272.20 71.22 C271.93,84.76 272.09,86.59 273.64,87.73 ZM 102.00 112.17 L 102.00 120.23 L 105.25 119.53 C107.04,119.15 109.96,118.76 111.75,118.67 L 115.00 118.50 L 115.00 101.77 L 109.25 102.48 C106.09,102.88 103.16,103.41 102.75,103.66 C102.34,103.91 102.00,107.74 102.00,112.17 ZM 261.20 120.75 C260.99,124.42 260.48,126.00 259.51,126.00 C257.53,126.00 257.25,125.19 257.11,119.00 C256.95,111.93 257.81,108.00 259.51,108.00 C260.25,108.00 262.27,110.48 264.01,113.51 C265.74,116.54 267.56,118.77 268.04,118.47 C268.53,118.17 270.18,115.69 271.71,112.97 C273.40,109.97 275.19,108.00 276.25,108.00 C277.79,108.00 278.00,109.09 278.00,117.00 C278.00,125.33 277.85,126.00 276.00,126.00 C274.24,126.00 274.00,125.32 273.97,120.25 L 273.94 114.50 L 271.22 119.25 C269.72,121.86 268.17,123.99 267.76,124.00 C267.36,124.00 265.78,122.09 264.26,119.75 L 261.50 115.50 ZM 286.20 120.75 C285.98,124.53 285.49,126.00 284.45,126.00 C283.65,126.00 282.98,125.44 282.97,124.75 C282.95,124.06 282.70,120.01 282.42,115.75 C281.95,108.54 282.05,108.00 283.89,108.00 C285.22,108.00 286.86,109.76 289.01,113.51 C290.74,116.54 292.55,118.78 293.03,118.48 C293.51,118.18 295.13,115.70 296.61,112.97 C298.34,109.79 299.98,108.00 301.16,108.00 C302.81,108.00 303.00,108.93 303.00,117.00 C303.00,125.33 302.85,126.00 301.00,126.00 C299.24,126.00 299.00,125.32 298.97,120.25 L 298.94 114.50 L 296.22 119.25 C294.72,121.86 293.17,123.99 292.76,124.00 C292.36,124.00 290.78,122.09 289.26,119.75 L 286.50 115.50 ZM 365.00 118.61 C365.00,124.51 364.70,126.00 363.50,126.00 C362.67,126.00 361.94,125.78 361.88,125.50 L 361.50 124.00 C361.36,123.45 361.19,120.30 361.12,117.00 C361.01,111.30 360.88,111.00 358.50,111.00 C356.94,111.00 356.00,110.43 356.00,109.50 C356.00,108.27 357.69,108.00 365.25,108.01 L 374.50 108.01 L 377.08 112.06 L 379.67 116.10 L 382.35 112.05 C383.82,109.82 385.71,108.00 386.55,108.00 C388.24,108.00 387.79,109.14 383.34,116.23 C382.05,118.28 381.00,121.32 381.00,122.98 C381.00,125.00 380.50,126.00 379.50,126.00 C378.48,126.00 377.99,124.96 377.98,122.75 C377.97,120.93 376.70,117.49 375.10,114.94 C372.42,110.68 371.99,110.40 368.61,110.80 L 365.00 111.22 ZM 123.00 119.00 C123.82,119.53 125.29,119.98 126.25,119.98 C127.78,120.00 128.00,118.94 128.00,111.56 C128.00,104.19 127.78,103.12 126.25,103.13 C125.29,103.13 122.59,102.82 120.25,102.44 L 116.00 101.74 L 116.00 118.00 L 118.75 118.02 C120.26,118.02 122.18,118.47 123.00,119.00 ZM 332.20 120.25 C331.94,125.18 331.62,126.00 329.95,126.00 C328.16,126.00 328.00,125.26 328.00,117.00 C328.00,108.86 328.18,108.00 329.88,108.00 C330.98,108.00 333.56,110.34 336.13,113.68 L 340.50 119.35 L 340.80 113.68 C341.06,108.82 341.38,108.00 343.05,108.00 C344.84,108.00 345.00,108.74 345.00,117.00 C345.00,124.93 344.79,125.99 343.25,125.94 C342.29,125.91 339.48,123.33 337.00,120.19 L 332.50 114.50 ZM 68.13 123.66 C68.77,124.43 69.64,124.94 70.05,124.78 C70.46,124.63 76.23,119.55 82.87,113.50 C92.62,104.61 94.94,101.97 94.97,99.75 C94.99,98.24 94.72,97.00 94.37,97.00 C94.02,97.00 87.71,102.68 80.35,109.62 C69.46,119.89 67.18,122.51 68.13,123.66 ZM 484.00 124.50 C484.00,125.69 482.56,126.00 477.00,126.00 L 470.00 126.00 L 470.00 108.00 L 477.08 108.00 C482.30,108.00 484.06,108.33 483.76,109.25 C483.53,109.95 481.28,110.63 478.67,110.80 C474.82,111.06 474.00,111.45 474.00,113.05 C474.00,114.66 474.70,115.00 478.00,115.00 C480.89,115.00 482.00,115.42 482.00,116.50 C482.00,117.58 480.89,118.00 478.00,118.00 C474.40,118.00 474.00,118.25 474.00,120.50 C474.00,122.83 474.33,123.00 479.00,123.00 C482.78,123.00 484.00,123.37 484.00,124.50 ZM 67.56 71.97 L 73.50 73.58 L 80.29 70.63 C84.02,69.00 86.72,67.34 86.29,66.93 C85.85,66.52 82.80,65.49 79.50,64.64 C73.58,63.12 73.42,63.13 67.24,65.77 C63.80,67.25 61.13,68.88 61.30,69.41 C61.48,69.93 64.29,71.09 67.56,71.97 ZM 67.63 80.93 C69.08,82.07 71.72,83.00 73.50,83.00 C77.94,83.00 82.00,79.63 82.00,75.96 C82.00,73.80 82.38,73.21 83.50,73.64 C84.45,74.00 85.00,73.62 85.00,72.59 C85.00,70.67 81.87,70.98 77.27,73.36 C74.67,74.70 73.72,74.72 69.65,73.50 L 65.00 72.10 L 65.00 75.48 C65.00,77.94 65.72,79.42 67.63,80.93 ZM 321.10 124.12 C319.82,125.15 317.30,126.00 315.50,126.00 C309.72,126.00 307.64,123.28 307.18,115.12 C306.80,108.41 306.90,108.00 308.89,108.00 C310.81,108.00 311.00,108.55 311.00,114.30 C311.00,120.98 312.04,123.00 315.50,123.00 C318.96,123.00 320.00,120.98 320.00,114.30 C320.00,108.55 320.19,108.00 322.11,108.00 C324.10,108.00 324.20,108.41 323.82,115.12 C323.49,121.09 323.04,122.55 321.10,124.12 ZM 522.00 124.50 C522.00,125.69 520.56,126.00 515.00,126.00 L 508.00 126.00 L 508.00 108.00 L 514.50 108.00 C519.61,108.00 521.00,108.32 521.00,109.50 C521.00,110.63 519.78,111.00 516.00,111.00 C511.67,111.00 511.00,111.27 511.00,113.00 C511.00,114.70 511.67,115.00 515.50,115.00 C518.83,115.00 520.00,115.39 520.00,116.50 C520.00,117.61 518.83,118.00 515.50,118.00 C511.37,118.00 511.00,118.20 511.00,120.50 C511.00,122.86 511.30,123.00 516.50,123.00 C520.72,123.00 522.00,123.35 522.00,124.50 ZM 501.42 125.39 C498.97,126.33 492.70,126.05 490.75,124.92 C488.60,123.67 486.00,118.82 486.00,116.07 C486.00,114.95 487.31,112.56 488.92,110.77 C491.40,107.99 492.51,107.50 496.37,107.50 C501.30,107.50 504.17,109.23 502.31,111.09 C501.52,111.88 500.65,111.88 499.17,111.09 C496.93,109.89 492.16,111.16 490.79,113.31 C488.06,117.60 491.65,123.00 497.22,123.00 C499.64,123.00 500.00,122.61 500.00,120.00 C503.66,117.00 503.58,124.56 501.42,125.39 ZM 62.55 116.29 C62.93,117.28 63.63,117.95 64.11,117.79 C64.58,117.63 70.67,112.32 77.64,106.00 C86.59,97.87 89.80,94.40 88.58,94.16 C85.02,93.47 82.24,95.26 72.18,104.76 C64.17,112.32 62.01,114.90 62.55,116.29 ZM 115.19 84.00 C114.81,92.06 112.00,86.70 112.00,77.92 C112.00,75.51 111.43,73.78 110.45,73.23 C108.45,72.11 110.03,67.52 113.56,64.21 C114.90,62.95 116.00,61.46 116.00,60.91 C116.00,60.35 114.54,61.27 112.75,62.95 C110.17,65.37 109.43,65.67 109.16,64.40 C108.97,63.53 110.21,61.45 111.91,59.79 C113.61,58.12 115.00,57.27 115.00,57.88 C115.00,58.50 115.68,59.00 116.50,59.00 C119.00,59.00 118.33,64.34 115.50,67.00 C112.63,69.70 112.32,71.00 114.56,71.00 C115.42,71.00 115.88,70.61 115.58,70.13 C115.29,69.66 116.01,68.42 117.18,67.38 L 119.31 65.50 L 118.64 69.00 C118.27,70.93 117.42,72.95 116.74,73.50 C116.06,74.05 115.47,75.74 115.44,77.25 C115.40,78.76 115.29,81.80 115.19,84.00 ZM 420.65 121.17 C423.78,124.62 430.63,122.86 431.04,118.50 C431.43,114.42 430.94,113.01 428.63,111.50 C426.76,110.27 425.68,110.17 423.41,111.04 C421.83,111.64 420.20,112.66 419.79,113.31 C418.49,115.35 418.93,119.26 420.65,121.17 ZM 412.04 124.46 C410.58,126.21 404.64,126.42 401.36,124.83 C396.11,122.29 395.48,113.20 400.30,109.62 C403.44,107.29 410.02,106.94 412.48,108.98 C414.87,110.96 413.39,111.80 408.49,111.25 C405.02,110.86 403.49,111.16 401.98,112.52 C399.44,114.82 399.45,118.45 402.00,121.00 C404.14,123.14 409.45,123.71 410.55,121.91 C411.02,121.16 411.54,121.14 412.27,121.87 C413.00,122.60 412.93,123.39 412.04,124.46 ZM 230.07 124.96 C226.11,127.08 220.12,125.78 217.25,122.18 C215.10,119.48 215.69,112.64 218.30,110.19 C221.20,107.46 225.68,106.54 229.33,107.93 C233.67,109.59 232.13,111.56 226.81,111.17 C221.48,110.79 219.00,112.65 219.00,117.05 C219.00,121.17 222.66,123.40 227.97,122.51 C232.31,121.77 233.48,123.14 230.07,124.96 ZM 239.65 121.17 C243.32,125.22 250.00,122.24 250.00,116.55 C250.00,112.45 248.43,111.00 244.00,111.00 C242.02,111.00 239.86,111.54 239.20,112.20 C237.47,113.93 237.73,119.04 239.65,121.17 ZM 74.98 129.48 C75.68,130.31 76.45,131.00 76.70,131.00 C76.94,131.00 81.16,127.30 86.07,122.77 C93.28,116.12 95.00,113.99 95.00,111.70 L 95.00 108.85 L 92.64 110.71 C91.34,111.74 86.55,116.03 81.99,120.26 C74.97,126.79 73.91,128.18 74.98,129.48 ZM 467.00 124.50 C467.00,125.68 465.61,126.00 460.50,126.00 L 454.00 126.00 L 454.00 117.00 C454.00,108.67 454.15,108.00 456.00,108.00 C457.82,108.00 458.00,108.67 458.00,115.50 L 458.00 123.00 L 462.50 123.00 C465.83,123.00 467.00,123.39 467.00,124.50 ZM 58.69 109.35 C59.71,110.38 60.01,110.15 69.02,101.75 C77.27,94.06 77.31,94.00 74.10,94.00 C71.57,94.00 69.45,95.26 64.43,99.75 C58.48,105.07 56.95,107.62 58.69,109.35 ZM 452.00 124.50 C452.00,125.68 450.61,126.00 445.50,126.00 L 439.00 126.00 L 439.00 117.00 C439.00,109.67 439.28,108.00 440.50,108.00 C441.70,108.00 442.00,109.50 442.00,115.50 L 442.00 123.00 L 447.00 123.00 C450.78,123.00 452.00,123.37 452.00,124.50 ZM 82.62 134.71 C83.59,135.42 84.54,136.00 84.73,136.00 C84.93,136.00 87.32,133.91 90.04,131.36 C93.81,127.84 95.00,126.02 95.00,123.79 C95.00,120.85 94.99,120.85 87.93,127.13 C81.50,132.84 81.02,133.54 82.62,134.71 ZM 353.00 116.93 C353.00,124.27 352.72,126.00 351.52,126.00 C349.52,126.00 348.83,122.72 349.20,114.98 C349.44,109.77 349.84,108.46 351.25,108.19 C352.81,107.89 353.00,108.83 353.00,116.93 ZM 91.75 139.31 C92.71,139.56 93.84,139.82 94.25,139.88 C94.66,139.95 95.00,138.35 95.00,136.33 L 95.00 132.65 L 92.50 135.00 C89.54,137.78 89.39,138.69 91.75,139.31 ZM 58.00 96.67 L 58.00 99.35 L 60.75 96.92 C62.26,95.59 63.69,94.39 63.92,94.25 C64.15,94.11 62.91,94.00 61.17,94.00 C58.40,94.00 58.00,94.34 58.00,96.67 ZM 79.75 28.25 C79.12,30.14 76.00,30.41 76.00,28.57 C76.00,27.65 76.85,27.00 78.08,27.00 C79.31,27.00 79.99,27.52 79.75,28.25 Z" fill="rgb(94,35,48)"/>
<path d="M 8.56 92.47 C10.85,94.20 13.00,94.43 13.00,92.95 C13.00,92.37 11.47,91.26 9.59,90.47 C7.72,89.69 4.80,87.36 3.09,85.30 L 0.00 81.54 L 0.00 78.00 L 3.44 78.00 C5.33,78.00 7.16,78.45 7.50,78.99 C7.83,79.54 8.99,80.46 10.06,81.03 C11.77,81.94 12.00,81.73 11.99,79.29 C11.99,77.23 11.19,76.05 8.96,74.77 C5.82,72.99 2.84,67.59 3.71,65.30 C4.44,63.40 7.36,63.71 10.27,66.00 C13.48,68.52 14.00,68.51 14.00,65.87 C14.00,64.70 12.43,62.00 10.50,59.87 C6.99,55.98 6.29,53.66 7.89,51.14 C9.16,49.13 12.83,50.67 14.91,54.09 C15.88,55.68 16.97,56.69 17.34,56.33 C17.70,55.97 18.00,56.64 18.00,57.83 C18.00,60.08 19.42,60.74 20.50,59.00 C21.50,57.38 29.00,57.75 29.00,59.43 C29.00,61.91 23.99,65.00 19.98,65.00 C16.57,65.00 16.19,65.28 15.79,68.01 C15.22,71.85 15.69,72.25 18.56,70.37 C21.09,68.71 25.13,68.84 25.70,70.60 C26.42,72.76 22.38,76.25 18.44,76.89 C14.75,77.48 14.48,77.76 14.19,81.26 C13.83,85.56 14.23,85.75 17.73,83.00 C20.40,80.90 26.00,80.25 26.00,82.05 C26.00,85.95 20.61,91.00 16.45,91.00 C15.57,91.00 15.00,91.98 15.00,93.50 C15.00,96.53 15.31,96.57 18.89,93.92 C20.50,92.73 22.80,91.98 24.25,92.17 C26.76,92.50 26.78,92.55 25.35,96.11 C24.52,98.18 22.75,100.25 21.20,100.97 C19.71,101.67 17.83,102.56 17.00,102.96 C15.17,103.85 8.11,102.05 5.39,100.00 C4.30,99.18 2.63,97.39 1.70,96.03 C0.09,93.68 0.00,95.62 0.00,133.78 L 0.00 86.27 C0.00,90.96 0.03,91.00 3.31,91.00 C5.13,91.00 7.49,91.66 8.56,92.47 ZM 170.91 136.54 C168.07,139.39 162.96,140.38 158.50,138.96 C156.85,138.44 154.89,138.24 154.14,138.52 C153.27,138.84 152.98,138.51 153.33,137.58 C153.63,136.79 153.20,135.58 152.37,134.90 C149.74,132.71 147.92,128.16 148.60,125.46 C149.58,121.56 153.04,122.59 155.50,127.50 C156.60,129.70 157.61,131.68 157.74,131.91 C158.20,132.68 162.00,128.69 162.00,127.45 C162.00,126.76 160.43,124.62 158.50,122.70 C156.27,120.47 155.00,118.24 155.00,116.57 C155.00,111.07 161.12,112.66 163.71,118.83 L 165.26 122.50 L 166.75 119.38 C168.21,116.31 168.17,116.18 164.67,112.88 C160.08,108.54 159.40,104.63 163.14,104.19 C165.15,103.96 166.32,104.64 167.99,106.99 C169.61,109.26 170.53,109.81 171.44,109.05 C172.12,108.48 172.94,108.27 173.25,108.58 C173.56,108.89 175.18,108.44 176.86,107.57 C178.53,106.71 181.27,106.00 182.95,106.00 C186.80,106.00 187.06,108.66 183.60,112.67 C181.64,114.95 180.16,115.55 175.43,115.98 C171.98,116.29 169.49,117.02 169.23,117.80 C168.90,118.79 169.93,118.96 173.65,118.51 C179.55,117.79 181.68,118.86 180.13,121.76 C178.21,125.34 172.04,128.26 167.82,127.59 C164.73,127.09 163.89,127.34 163.00,128.99 C162.41,130.10 162.06,131.03 162.21,131.08 C162.37,131.12 164.52,131.37 167.00,131.64 C173.08,132.30 174.00,133.46 170.91,136.54 ZM 28.00 126.35 C28.00,128.39 18.93,128.25 15.50,126.15 C11.39,123.65 9.66,121.34 10.41,119.38 C10.92,118.05 11.91,117.85 15.52,118.35 C19.09,118.84 20.00,118.66 20.00,117.48 C20.00,116.39 18.81,116.00 15.49,116.00 C11.76,116.00 10.33,115.42 7.32,112.65 C4.84,110.38 3.87,108.78 4.30,107.65 C5.12,105.51 10.78,105.46 13.78,107.56 C15.43,108.71 16.00,108.78 16.00,107.84 C16.00,106.97 16.52,107.10 17.66,108.23 C19.21,109.79 19.50,109.71 21.91,107.06 C24.99,103.69 30.00,102.11 30.00,104.51 C30.00,107.74 27.01,113.04 24.55,114.16 C21.83,115.40 21.24,117.84 23.20,119.80 C24.82,121.42 26.00,121.31 26.00,119.54 C26.00,117.57 31.05,113.00 33.24,113.00 C36.76,113.00 33.78,123.30 29.90,124.53 C28.86,124.86 28.00,125.68 28.00,126.35 ZM 149.56 157.51 C148.49,158.33 146.47,158.98 145.06,158.96 C142.08,158.90 135.00,155.40 135.00,153.98 C135.00,153.44 134.42,153.00 133.71,153.00 C133.01,153.00 132.34,152.21 132.24,151.25 C132.13,150.29 131.76,147.81 131.41,145.74 C130.73,141.68 132.87,137.00 135.42,137.00 C137.24,137.00 138.00,139.23 138.00,144.56 C138.00,148.92 138.02,148.95 140.57,147.79 C143.22,146.58 143.24,146.16 140.93,140.43 C139.51,136.90 140.35,132.19 142.54,131.35 C145.16,130.34 147.00,132.98 147.00,137.73 C147.00,141.38 147.29,142.10 148.56,141.62 C150.77,140.77 159.13,142.81 161.24,144.72 C162.90,146.22 162.91,146.45 161.35,148.16 C159.19,150.55 150.95,150.67 147.41,148.35 C145.38,147.02 144.67,146.95 143.70,147.98 C142.76,148.97 142.80,149.36 143.87,149.75 C144.63,150.02 146.65,151.55 148.37,153.13 C151.41,155.93 151.45,156.05 149.56,157.51 ZM 159.43 40.88 C155.62,42.27 152.06,42.27 149.68,40.88 C147.95,39.87 147.94,39.72 149.58,37.91 C150.53,36.86 152.52,36.00 153.99,36.00 C157.61,36.00 158.33,35.02 156.35,32.83 C154.22,30.48 152.92,30.53 148.50,33.13 C145.46,34.92 144.47,35.08 142.34,34.11 C139.97,33.03 139.89,32.79 141.26,30.72 C142.14,29.38 143.97,28.38 145.86,28.19 C148.80,27.89 149.92,26.25 148.29,24.62 C147.12,23.45 148.05,15.60 149.54,14.07 C150.75,12.82 151.19,12.87 152.87,14.38 C155.28,16.56 156.36,21.93 155.07,25.32 C154.30,27.35 154.49,28.38 155.97,30.20 C157.46,32.02 157.94,32.18 158.29,31.00 C160.14,24.64 160.76,23.48 162.40,23.16 C168.90,21.91 166.13,38.44 159.43,40.88 ZM 33.44 51.06 C30.29,54.55 20.33,52.59 17.44,47.91 C16.30,46.07 15.12,38.85 15.71,37.32 C16.70,34.74 19.93,35.95 21.80,39.60 L 23.64 43.19 L 25.39 40.53 C26.99,38.08 27.01,37.66 25.57,35.47 C23.77,32.72 23.52,27.77 25.04,24.93 C27.27,20.75 31.00,23.91 31.00,29.99 C31.00,31.71 31.41,32.87 31.91,32.56 C32.41,32.25 32.58,32.90 32.29,34.00 C31.84,35.70 32.26,36.00 35.13,36.03 C36.99,36.05 39.35,36.71 40.40,37.50 C44.67,40.73 36.15,43.75 30.82,40.90 C28.47,39.65 26.68,40.96 25.54,44.75 C24.91,46.85 25.17,47.00 29.37,47.00 C34.60,47.00 35.92,48.32 33.44,51.06 ZM 50.00 32.04 C50.00,35.07 41.62,34.66 39.00,31.50 C38.32,30.68 37.12,30.00 36.33,30.00 C35.55,30.00 35.02,29.44 35.14,28.75 C35.27,28.06 35.04,26.08 34.63,24.35 C33.27,18.62 38.60,10.17 41.09,14.10 C41.57,14.87 41.98,16.71 41.98,18.19 C41.99,19.67 42.40,21.13 42.89,21.43 C44.43,22.38 45.83,19.64 45.72,15.87 C45.60,11.77 48.24,7.00 50.64,7.00 C51.97,7.00 52.17,8.04 51.83,13.35 C51.43,19.61 51.48,19.74 54.71,21.86 C58.48,24.33 58.84,25.60 56.04,26.49 C53.94,27.15 51.15,26.01 48.55,23.41 C47.08,21.94 46.74,21.94 44.47,23.43 C41.77,25.20 41.21,27.00 43.37,27.00 C45.01,27.00 50.00,30.79 50.00,32.04 ZM 102.00 112.17 C102.00,107.74 102.34,103.91 102.75,103.66 C103.16,103.41 106.09,102.88 109.25,102.48 L 115.00 101.77 L 115.00 118.50 L 111.75 118.67 C109.96,118.76 107.04,119.15 105.25,119.53 L 102.00 120.23 ZM 66.60 162.91 C63.72,165.61 58.28,167.02 55.16,165.86 C52.45,164.86 53.19,162.94 57.94,158.71 C59.66,157.18 60.78,155.45 60.43,154.88 C60.03,154.24 60.69,153.97 62.14,154.17 C63.83,154.41 64.40,154.07 64.14,153.00 C63.31,149.55 63.62,143.98 64.69,142.91 C65.56,142.04 66.47,142.38 68.42,144.33 C70.57,146.48 71.00,147.83 71.00,152.45 C71.00,155.50 70.55,158.00 70.00,158.00 C69.45,158.00 69.00,158.60 69.00,159.33 C69.00,160.05 67.92,161.67 66.60,162.91 ZM 43.47 148.02 C41.63,149.55 36.90,150.64 34.00,150.20 C31.43,149.81 28.00,147.33 28.00,145.87 C28.00,144.28 34.10,141.92 38.47,141.84 C42.69,141.75 42.88,141.63 42.41,139.12 C41.92,136.51 45.07,130.00 46.82,130.00 C47.96,130.00 50.00,134.57 50.00,137.10 C50.00,138.20 49.33,140.40 48.51,141.99 C47.69,143.57 47.31,145.65 47.68,146.61 C48.21,147.98 47.97,148.20 46.55,147.66 C45.56,147.28 44.17,147.44 43.47,148.02 ZM 52.11 156.70 C50.25,157.97 47.55,158.97 46.11,158.93 C43.28,158.86 39.00,157.11 39.00,156.02 C39.00,154.84 43.42,151.25 45.75,150.55 C46.99,150.17 48.00,149.42 48.00,148.87 C48.00,148.32 49.01,148.02 50.24,148.19 C52.30,148.47 52.49,148.10 52.49,143.62 C52.50,138.18 54.78,135.38 57.22,137.82 C59.16,139.76 58.99,153.07 57.02,153.82 C56.18,154.14 53.97,155.44 52.11,156.70 ZM 177.50 91.00 C176.79,92.15 176.61,92.14 172.33,90.90 C169.00,89.94 164.00,84.85 164.00,82.42 C164.00,80.24 169.32,80.68 172.43,83.12 L 175.12 85.24 L 175.69 83.06 C176.06,81.68 176.79,81.09 177.72,81.45 C178.52,81.75 180.32,81.10 181.72,80.00 C183.99,78.22 190.00,77.15 190.00,78.53 C190.00,78.82 189.37,80.56 188.61,82.39 C186.82,86.68 183.23,90.00 180.37,90.00 C179.13,90.00 177.84,90.45 177.50,91.00 ZM 123.00 119.00 C122.18,118.47 120.26,118.02 118.75,118.02 L 116.00 118.00 L 116.00 101.74 L 120.25 102.44 C122.59,102.82 125.29,103.13 126.25,103.13 C127.78,103.12 128.00,104.19 128.00,111.56 C128.00,118.94 127.78,120.00 126.25,119.98 C125.29,119.98 123.82,119.53 123.00,119.00 ZM 136.27 165.40 C135.94,165.73 134.04,166.00 132.06,166.00 C128.24,166.00 124.95,164.17 121.29,160.02 C117.44,155.66 118.70,144.86 123.23,143.43 C125.99,142.55 126.53,143.54 126.29,149.08 C126.12,152.99 126.40,154.00 127.66,154.00 C128.86,154.00 128.98,154.32 128.15,155.32 C127.30,156.35 127.90,157.01 130.87,158.32 C134.44,159.90 137.61,164.06 136.27,165.40 ZM 185.39 100.14 C184.35,101.04 181.48,102.20 179.00,102.71 C175.22,103.50 173.86,103.31 170.50,101.57 C165.84,99.16 161.81,92.75 164.57,92.16 C167.09,91.62 170.36,92.75 172.77,95.00 C174.00,96.14 175.00,96.57 175.00,95.96 C175.00,95.34 175.56,95.03 176.25,95.27 C176.94,95.52 178.73,94.85 180.24,93.80 C182.98,91.88 190.00,90.15 190.00,91.40 C190.00,93.13 187.07,98.68 185.39,100.14 ZM 32.70 138.75 C28.71,140.53 24.99,140.29 21.25,138.01 C17.95,136.00 16.97,133.30 19.25,132.49 C19.94,132.25 22.19,131.89 24.25,131.69 C26.31,131.50 28.30,131.04 28.67,130.67 C29.04,130.30 30.09,130.68 31.01,131.51 C32.53,132.89 32.78,132.68 33.85,129.12 C34.49,126.97 36.14,124.48 37.53,123.57 C39.93,122.00 40.07,122.02 40.86,124.14 C42.61,128.88 38.56,136.13 32.70,138.75 ZM 186.00 68.63 C186.00,69.44 183.79,72.30 181.09,75.00 C177.49,78.60 176.03,79.52 175.62,78.46 C175.31,77.64 173.77,77.00 172.12,77.00 C168.95,77.00 163.43,71.72 164.61,69.82 C165.25,68.79 169.09,69.11 172.24,70.46 C173.53,71.01 174.21,70.61 174.83,68.93 C175.34,67.54 175.94,67.09 176.35,67.76 C176.80,68.49 177.88,68.03 179.47,66.44 C182.28,63.62 187.60,62.99 186.61,65.58 C186.27,66.45 186.00,67.82 186.00,68.63 ZM 176.00 64.89 C176.00,65.50 175.66,65.94 175.25,65.87 C174.84,65.79 172.30,65.43 169.61,65.06 C164.77,64.38 160.29,60.96 161.56,58.90 C162.32,57.67 168.73,57.76 169.50,59.00 C170.30,60.29 172.00,60.30 172.00,59.01 C172.00,57.94 174.33,54.89 177.44,51.88 C179.64,49.75 183.00,49.37 182.99,51.25 C182.98,54.69 180.66,60.12 178.47,61.85 C177.11,62.92 176.00,64.29 176.00,64.89 ZM 67.56 71.97 C64.29,71.09 61.48,69.93 61.30,69.41 C61.13,68.88 63.80,67.25 67.24,65.77 C73.42,63.13 73.58,63.12 79.50,64.64 C82.80,65.49 85.85,66.52 86.29,66.93 C86.72,67.34 84.02,69.00 80.29,70.63 L 73.50 73.58 ZM 166.54 51.93 C165.44,53.71 159.39,53.14 156.86,51.02 C154.84,49.32 154.71,48.89 156.00,47.99 C156.82,47.41 159.44,47.07 161.80,47.23 C165.50,47.48 166.04,47.27 165.65,45.76 C165.39,44.79 165.60,44.00 166.09,44.00 C166.59,44.00 167.00,43.33 167.00,42.52 C167.00,41.70 168.34,39.56 169.98,37.77 C172.49,35.03 173.13,34.74 173.97,36.00 C175.79,38.73 175.11,43.71 172.50,46.82 C171.12,48.45 170.00,50.27 170.00,50.86 C170.00,51.45 169.37,51.70 168.60,51.40 C167.83,51.11 166.91,51.34 166.54,51.93 ZM 67.63 80.93 C65.72,79.42 65.00,77.94 65.00,75.48 L 65.00 72.10 L 69.65 73.50 C73.72,74.72 74.67,74.70 77.27,73.36 C81.87,70.98 85.00,70.67 85.00,72.59 C85.00,73.62 84.45,74.00 83.50,73.64 C82.38,73.21 82.00,73.80 82.00,75.96 C82.00,79.63 77.94,83.00 73.50,83.00 C71.72,83.00 69.08,82.07 67.63,80.93 ZM 140.59 24.50 C137.87,27.22 132.00,28.03 132.00,25.67 C132.00,24.04 136.18,20.00 137.87,20.00 C138.62,20.00 138.80,19.50 138.34,18.75 C137.40,17.24 136.98,11.18 137.65,8.75 C138.27,6.51 140.26,6.51 142.25,8.75 C143.82,10.51 145.16,22.00 143.80,22.00 C143.41,22.00 141.97,23.12 140.59,24.50 ZM 128.78 19.44 C126.26,21.21 122.00,21.53 122.00,19.95 C122.00,18.62 126.59,14.00 127.92,14.00 C128.48,14.00 128.00,12.42 126.86,10.49 C124.79,6.98 124.89,2.00 127.03,2.00 C128.85,2.00 131.38,5.89 132.54,10.47 C133.48,14.17 133.44,15.00 132.35,15.00 C131.61,15.00 131.00,15.65 131.00,16.44 C131.00,17.24 130.00,18.59 128.78,19.44 ZM 67.50 18.53 C67.50,21.86 63.83,21.39 59.75,17.54 C57.68,15.59 56.45,14.00 57.00,14.00 C57.55,14.00 58.00,12.45 58.00,10.56 C58.00,6.68 61.92,1.21 63.84,2.40 C65.44,3.39 65.28,6.93 63.48,10.40 C61.83,13.56 61.90,13.77 65.23,15.43 C66.48,16.05 67.50,17.45 67.50,18.53 ZM 75.76 12.57 C74.20,14.13 68.99,14.72 67.36,13.52 C64.76,11.62 67.25,9.00 71.65,9.00 C74.74,9.00 77.20,11.14 75.76,12.57 ZM 123.91 13.08 C121.64,14.52 116.35,14.13 114.94,12.42 C113.29,10.44 115.10,9.04 119.32,9.02 C122.92,9.00 126.02,11.74 123.91,13.08 ZM 97.25 166.16 C96.69,168.31 93.33,168.67 93.33,166.58 C93.33,165.81 94.32,164.98 95.53,164.75 C97.26,164.42 97.62,164.72 97.25,166.16 Z" fill="rgb(242,201,90)"/>
<path d="M 97.25 166.16 C97.62,164.72 97.26,164.42 95.53,164.75 C94.32,164.98 93.33,165.81 93.33,166.58 C93.33,167.42 93.87,167.86 94.55,167.96 L 91.96 169.87 C87.81,172.94 86.16,172.49 89.35,169.15 C91.51,166.90 91.81,166.09 90.79,165.24 C88.63,163.45 79.78,160.31 74.89,159.59 C71.29,159.07 70.35,159.09 68.23,161.02 C68.70,160.33 69.00,159.71 69.00,159.33 C69.00,158.60 69.45,158.00 70.00,158.00 C70.55,158.00 71.00,155.50 71.00,152.45 C71.00,152.05 71.00,151.67 70.99,151.32 L 71.50 156.32 L 79.57 158.45 C84.02,159.62 89.16,161.54 91.01,162.71 L 94.38 164.84 L 99.23 162.39 C101.89,161.03 104.51,160.20 105.04,160.52 C105.57,160.85 106.00,160.68 106.00,160.15 C106.00,159.61 108.81,158.57 112.25,157.83 C118.38,156.52 118.51,156.42 118.79,152.99 C118.87,151.98 119.00,151.02 119.18,150.13 C118.66,153.68 119.27,157.74 121.29,160.02 C122.65,161.56 123.95,162.78 125.25,163.71 C124.69,163.33 124.10,162.91 123.48,162.43 C119.26,159.21 118.39,158.93 114.65,159.55 C109.01,160.49 100.45,163.75 98.97,165.53 C98.00,166.71 98.22,167.35 100.13,168.91 C103.57,171.69 101.69,172.63 97.97,169.98 L 95.13 167.95 C96.02,167.84 96.97,167.22 97.25,166.16 ZM 53.44 26.49 C54.37,26.73 55.25,26.74 56.04,26.49 C58.84,25.60 58.48,24.33 54.71,21.86 C51.48,19.74 51.43,19.61 51.83,13.35 C52.02,10.29 52.04,8.65 51.77,7.81 C52.52,8.60 52.97,10.10 52.98,12.11 C53.00,14.35 53.35,14.66 55.50,14.24 C56.87,13.98 57.53,13.61 57.81,12.58 C57.63,13.44 57.33,14.00 57.00,14.00 C56.45,14.00 57.68,15.59 59.75,17.54 C62.31,19.96 64.72,21.05 66.15,20.69 C66.01,20.75 65.86,20.79 65.70,20.82 C64.71,21.01 62.36,19.98 60.46,18.54 C57.66,16.40 56.65,16.12 55.01,16.99 C52.34,18.42 52.45,18.89 56.17,22.00 C59.59,24.85 59.37,27.00 55.66,27.00 C55.06,27.00 54.28,26.81 53.44,26.49 ZM 159.43 40.88 C161.14,40.26 162.59,38.72 163.70,36.80 C163.32,37.77 163.62,38.44 164.61,39.86 L 166.19 42.11 L 168.89 39.07 C167.79,40.49 167.00,41.89 167.00,42.52 C167.00,43.33 166.59,44.00 166.09,44.00 C165.60,44.00 165.39,44.79 165.65,45.76 C166.04,47.27 165.50,47.48 161.80,47.23 C159.82,47.10 157.67,47.31 156.54,47.72 C157.66,47.04 159.97,46.27 161.73,46.00 C164.81,45.52 164.89,45.39 163.67,43.00 C162.83,41.37 161.71,40.62 160.44,40.83 C160.02,40.90 159.42,41.00 158.74,41.12 C158.97,41.04 159.20,40.96 159.43,40.88 ZM 164.31 95.43 C165.43,97.57 167.87,100.21 170.50,101.57 C173.86,103.31 175.22,103.50 179.00,102.71 C179.03,102.70 179.07,102.70 179.10,102.69 C176.85,103.34 175.37,104.32 175.18,105.31 C174.89,106.80 175.46,106.95 180.06,106.42 C178.90,106.71 177.73,107.12 176.86,107.57 C175.18,108.44 173.56,108.89 173.25,108.58 C172.94,108.27 172.12,108.48 171.44,109.05 C170.53,109.81 169.61,109.26 167.99,106.99 C167.54,106.35 167.13,105.84 166.72,105.44 C167.17,105.76 167.62,106.14 168.08,106.58 C170.98,109.36 171.07,109.33 172.25,105.02 C172.48,104.16 171.09,102.40 168.96,100.85 C167.05,99.47 165.05,97.12 164.31,95.43 ZM 166.54 51.93 C166.91,51.34 167.83,51.11 168.60,51.40 C169.37,51.70 170.00,51.45 170.00,50.86 C170.00,50.27 171.12,48.45 172.50,46.82 C173.32,45.85 173.94,44.70 174.36,43.49 C174.01,44.68 173.50,45.90 172.83,47.09 C170.97,50.40 170.83,51.33 171.87,53.62 L 173.09 56.29 L 176.16 53.14 C176.28,53.03 176.40,52.91 176.51,52.80 C173.88,55.49 172.00,58.05 172.00,59.01 C172.00,60.30 170.30,60.29 169.50,59.00 C169.10,58.35 167.14,58.02 165.26,58.02 C165.64,58.01 166.06,58.00 166.51,58.00 L 170.90 58.00 L 169.87 55.06 C169.04,52.67 168.73,52.23 165.94,52.48 C166.20,52.33 166.41,52.15 166.54,51.93 ZM 19.95 54.63 C18.76,57.77 18.63,58.38 21.68,58.29 C21.11,58.46 20.69,58.69 20.50,59.00 C19.42,60.74 18.00,60.08 18.00,57.83 C18.00,56.64 17.70,55.97 17.34,56.33 C16.97,56.69 15.88,55.68 14.91,54.09 C14.72,53.78 14.52,53.49 14.32,53.22 C16.25,55.11 16.52,55.01 17.67,53.43 C18.88,51.78 19.22,50.55 18.71,49.42 C20.50,51.08 23.23,52.22 25.92,52.65 C21.22,52.17 20.82,52.34 19.95,54.63 ZM 39.98 37.23 C38.80,36.56 36.77,36.05 35.13,36.03 C32.26,36.00 31.84,35.70 32.29,34.00 C32.58,32.90 32.41,32.25 31.91,32.56 C31.41,32.87 31.00,31.71 31.00,29.99 C31.00,29.20 30.94,28.45 30.82,27.77 C30.85,27.90 30.88,28.04 30.91,28.18 C31.47,30.89 31.61,30.96 33.66,29.53 C34.46,28.97 34.95,28.53 35.18,28.00 C35.19,28.32 35.18,28.57 35.14,28.75 C35.02,29.44 35.55,30.00 36.33,30.00 C37.12,30.00 38.32,30.68 39.00,31.50 C40.79,33.66 45.26,34.53 47.91,33.91 C46.77,34.49 45.51,34.43 43.19,33.80 C41.16,33.25 38.99,32.38 38.38,31.88 C37.00,30.76 34.34,31.67 33.63,33.51 C33.30,34.38 34.09,35.09 35.81,35.48 C37.11,35.78 38.86,36.52 39.98,37.23 ZM 40.85 129.37 C40.45,131.08 39.76,132.76 38.86,133.98 C36.72,136.87 36.71,137.02 38.48,138.98 C40.86,141.61 42.00,141.54 42.00,138.75 C42.01,137.73 42.60,136.06 43.38,134.45 C42.66,136.18 42.20,138.01 42.41,139.12 C42.88,141.63 42.69,141.75 38.47,141.84 C35.62,141.89 32.03,142.92 29.88,144.06 C30.71,143.59 31.89,143.11 33.45,142.58 C36.90,141.39 37.04,141.19 35.51,139.65 C34.61,138.75 33.89,138.42 33.02,138.60 C36.80,136.79 39.78,133.04 40.85,129.37 ZM 135.45 162.00 C134.38,160.58 132.67,159.12 130.87,158.32 C127.90,157.01 127.30,156.35 128.15,155.32 C128.98,154.32 128.86,154.00 127.66,154.00 C127.36,154.00 127.12,153.94 126.92,153.80 C127.41,153.79 128.21,153.41 129.47,152.83 C131.85,151.75 131.98,151.33 131.39,146.85 C130.93,143.39 131.14,141.57 132.24,139.76 C131.45,141.45 131.06,143.67 131.41,145.74 C131.76,147.81 132.13,150.29 132.24,151.25 C132.34,152.21 133.01,153.00 133.71,153.00 C134.42,153.00 135.00,153.44 135.00,153.98 C135.00,154.57 136.21,155.51 137.84,156.42 C134.87,154.92 132.08,154.16 130.94,154.52 C128.30,155.36 128.50,156.16 131.94,158.47 C133.34,159.40 134.60,160.73 135.45,162.00 ZM 144.34 18.71 C144.58,19.60 144.93,20.14 145.40,20.32 C147.23,21.03 148.00,20.18 148.00,17.46 C148.00,16.24 148.68,14.68 149.52,13.98 C149.65,13.88 149.78,13.78 149.91,13.71 C149.80,13.81 149.67,13.93 149.54,14.07 C148.05,15.60 147.12,23.45 148.29,24.62 C149.92,26.25 148.80,27.89 145.86,28.19 C143.97,28.38 142.14,29.38 141.26,30.72 C141.04,31.06 140.85,31.35 140.71,31.60 C140.80,31.38 140.92,31.15 141.06,30.88 C141.69,29.71 143.51,28.26 145.10,27.66 C148.64,26.32 148.71,25.69 145.54,23.62 C143.90,22.54 143.29,22.25 142.25,22.98 C142.98,22.39 143.57,22.00 143.80,22.00 C144.27,22.00 144.42,20.60 144.34,18.71 ZM 130.62 17.52 C130.86,17.12 131.00,16.74 131.00,16.44 C131.00,15.65 131.61,15.00 132.35,15.00 C133.27,15.00 133.44,14.41 132.91,11.99 C133.65,13.93 134.94,15.00 136.58,15.00 C136.81,15.00 137.00,13.91 137.00,12.58 C137.00,10.35 137.38,8.75 138.03,7.87 C137.88,8.11 137.75,8.40 137.65,8.75 C136.98,11.18 137.40,17.24 138.34,18.75 C138.80,19.50 138.62,20.00 137.87,20.00 C136.44,20.00 133.23,22.89 132.27,24.77 C132.60,24.02 133.34,23.09 134.50,22.00 C137.60,19.08 137.63,18.24 134.64,16.88 C132.95,16.11 132.15,16.16 130.62,17.52 ZM 161.19 144.67 L 161.23 144.71 C159.10,142.80 150.77,140.77 148.56,141.62 C147.29,142.10 147.00,141.38 147.00,137.73 C147.00,135.34 146.53,133.48 145.73,132.35 C146.61,133.38 147.30,135.02 147.63,137.11 L 148.25 140.96 L 151.19 138.86 C152.45,137.97 153.17,137.45 153.43,136.99 C153.43,137.20 153.40,137.40 153.33,137.58 C152.98,138.51 153.27,138.84 154.14,138.52 C154.69,138.31 155.91,138.37 157.17,138.62 C155.84,138.45 154.95,138.63 154.32,139.15 C152.26,140.86 152.74,141.70 156.18,142.39 C157.94,142.74 160.19,143.77 161.19,144.67 ZM 177.50 91.00 C177.84,90.45 179.13,90.00 180.37,90.00 C180.92,90.00 181.49,89.88 182.08,89.65 C182.04,89.67 182.01,89.68 181.97,89.70 C178.10,91.49 175.07,95.03 178.74,93.48 C180.52,92.73 183.46,91.94 185.84,91.49 C183.82,92.01 181.55,92.88 180.24,93.80 C178.73,94.85 176.94,95.52 176.25,95.27 C175.56,95.03 175.00,95.34 175.00,95.96 C175.00,96.11 174.93,96.20 174.82,96.23 C174.92,95.91 174.98,95.40 174.98,94.76 C175.00,92.75 174.39,91.86 172.17,90.85 C172.23,90.87 172.28,90.89 172.33,90.90 C176.61,92.14 176.79,92.15 177.50,91.00 ZM 180.58 115.01 C179.97,115.38 179.32,115.72 178.63,116.02 C175.89,117.24 175.17,117.89 176.50,117.94 C178.01,118.01 179.09,118.32 179.75,118.82 C178.70,118.24 176.67,118.14 173.65,118.51 C169.93,118.96 168.90,118.79 169.23,117.80 C169.49,117.02 171.98,116.29 175.43,115.98 C177.81,115.77 179.37,115.51 180.58,115.01 ZM 6.82 100.87 C10.05,102.51 15.43,103.72 17.00,102.96 C17.83,102.56 19.71,101.67 21.20,100.97 C22.75,100.25 24.51,98.19 25.34,96.12 C24.43,98.39 22.60,100.44 20.44,101.60 C16.62,103.66 16.58,103.76 18.02,107.55 L 18.59 109.04 C18.32,108.87 18.03,108.60 17.66,108.23 C16.52,107.10 16.00,106.97 16.00,107.84 C16.00,108.06 15.97,108.22 15.90,108.33 C15.89,107.91 15.59,107.06 15.08,105.71 C14.47,104.10 13.08,103.07 10.98,102.65 C9.93,102.44 8.37,101.75 6.82,100.87 ZM 28.00 126.35 C28.00,126.12 28.10,125.88 28.27,125.64 C27.73,126.63 28.44,128.07 30.40,129.90 L 32.70 132.07 C32.29,132.54 31.84,132.26 31.01,131.51 C30.09,130.68 29.04,130.30 28.67,130.67 C28.30,131.04 26.31,131.50 24.25,131.69 C23.59,131.75 22.92,131.83 22.28,131.92 C26.80,131.18 27.64,130.48 26.16,128.69 C25.79,128.25 25.10,127.93 24.26,127.78 C26.39,127.68 28.00,127.21 28.00,126.35 ZM 11.04 115.32 C12.26,115.85 13.57,116.00 15.49,116.00 C18.81,116.00 20.00,116.39 20.00,117.48 C20.00,118.66 19.09,118.84 15.52,118.35 C14.27,118.18 13.34,118.09 12.63,118.10 C13.09,118.00 13.62,117.94 14.22,117.92 L 17.50 117.84 L 13.41 116.39 C12.61,116.11 11.81,115.74 11.04,115.32 ZM 0.55 96.27 C0.80,94.94 1.17,95.25 1.70,96.03 C2.62,97.36 4.23,99.10 5.32,99.95 C4.82,99.61 4.34,99.27 3.90,98.92 ZM 170.91 136.54 C171.37,136.09 171.74,135.67 172.01,135.30 C173.13,133.72 172.72,132.81 170.48,132.22 C172.75,132.82 173.17,133.73 172.01,135.30 C171.77,135.64 171.45,136.02 171.06,136.43 C168.63,139.02 165.46,140.08 161.67,139.57 C165.21,139.82 168.73,138.73 170.91,136.54 ZM 139.68 7.09 C140.45,7.17 141.36,7.74 142.35,8.83 C143.36,9.95 143.98,12.29 144.00,15.07 C143.61,12.28 142.95,9.54 142.25,8.75 C141.35,7.74 140.45,7.18 139.68,7.09 ZM 12.09 123.62 C12.93,124.44 14.07,125.28 15.50,126.15 C17.02,127.08 19.66,127.63 22.12,127.77 C19.08,128.20 14.92,126.46 12.09,123.62 ZM 33.44 51.06 C33.49,51.01 33.54,50.95 33.59,50.90 C33.51,50.99 33.43,51.08 33.35,51.17 C32.02,52.65 31.03,53.04 28.01,52.84 C30.27,52.87 32.30,52.32 33.44,51.06 ZM 64.26 164.55 C62.86,165.52 61.51,166.07 60.35,166.12 C60.01,166.13 59.68,166.14 59.37,166.15 C61.02,165.92 62.76,165.36 64.26,164.55 ZM 174.65 126.35 C172.18,127.71 170.43,128.00 167.82,127.59 C169.87,127.92 172.39,127.39 174.65,126.35 ZM 163.06 62.31 C164.63,63.59 167.07,64.70 169.61,65.06 C166.44,64.62 164.35,63.74 163.06,62.31 ZM 132.34 9.72 C131.40,6.51 129.83,3.75 128.38,2.59 C130.03,3.84 131.82,6.90 132.34,9.72 ZM 29.00 59.39 C28.96,58.71 27.64,58.24 26.05,58.05 C28.34,58.02 29.00,58.37 29.00,59.33 C29.00,59.35 29.00,59.37 29.00,59.39 ZM 161.58 52.86 C159.69,52.86 158.60,52.42 157.22,51.29 C158.35,52.09 159.98,52.62 161.58,52.86 ZM 58.09 158.57 C59.65,156.78 60.62,155.20 60.37,154.78 C60.27,154.63 60.27,154.50 60.36,154.39 C60.28,154.52 60.30,154.68 60.43,154.88 C60.77,155.44 59.73,157.08 58.09,158.57 ZM 183.88 106.06 C185.75,106.01 186.00,106.43 186.00,107.64 C186.00,107.67 186.00,107.69 186.00,107.72 C185.86,106.82 185.15,106.24 183.88,106.06 ZM 46.92 10.51 C46.15,12.11 45.66,14.06 45.72,15.87 C45.73,16.26 45.72,16.63 45.70,16.99 C45.69,16.94 45.68,16.89 45.67,16.85 C45.26,15.27 45.89,12.62 46.92,10.51 ZM 164.25 35.75 C165.00,34.20 165.54,32.49 165.83,30.84 C165.63,32.64 165.18,34.33 164.52,35.34 C164.42,35.48 164.33,35.62 164.25,35.75 ZM 11.25 50.64 C9.85,50.01 8.55,50.10 7.89,51.14 C7.75,51.36 7.63,51.58 7.53,51.79 C7.55,51.72 7.58,51.65 7.61,51.58 C8.23,49.96 9.51,49.66 11.25,50.64 ZM 34.47 23.38 C34.12,21.54 34.38,20.02 35.35,17.70 C35.45,17.46 35.56,17.22 35.66,17.00 C34.78,18.92 34.24,21.26 34.47,23.38 ZM 166.77 92.08 C166.01,91.99 165.26,92.01 164.57,92.16 C163.89,92.31 163.62,92.81 163.67,93.52 C163.30,92.08 163.79,92.00 165.83,92.00 C166.12,92.00 166.44,92.03 166.77,92.08 ZM 30.29 25.79 C29.10,22.74 26.67,21.88 25.04,24.93 C25.01,24.97 24.99,25.02 24.97,25.06 C25.56,23.81 26.41,23.00 27.48,23.00 C28.76,23.00 29.61,23.80 30.29,25.79 ZM 135.22 27.00 C137.03,26.76 139.21,25.88 140.58,24.51 C139.06,26.03 137.08,26.94 135.22,27.00 ZM 43.47 148.02 C44.17,147.44 45.56,147.28 46.55,147.66 C47.27,147.93 47.68,148.01 47.85,147.85 C47.69,148.01 47.29,147.94 46.62,147.68 C45.85,147.39 44.51,147.60 43.31,148.15 C43.36,148.11 43.42,148.07 43.47,148.02 ZM 32.96 131.67 L 33.95 128.66 C34.39,127.32 35.17,126.03 36.06,124.99 C35.13,126.15 34.27,127.71 33.85,129.12 C33.48,130.34 33.21,131.16 32.96,131.67 ZM 149.47 130.90 C148.45,128.97 148.17,127.18 148.60,125.47 C148.23,126.95 148.61,129.00 149.47,130.90 ZM 7.08 53.75 C7.10,55.44 8.20,57.32 10.50,59.87 C7.95,57.05 6.98,55.50 7.08,53.75 ZM 40.26 122.81 C40.39,122.90 40.51,123.01 40.60,123.17 C41.01,123.82 41.21,124.77 41.24,125.87 C41.18,125.27 41.06,124.69 40.86,124.14 C40.63,123.52 40.45,123.08 40.26,122.81 ZM 69.69 145.80 C69.36,145.32 68.94,144.85 68.42,144.33 C67.95,143.86 67.53,143.48 67.17,143.19 C67.44,143.37 67.73,143.58 68.05,143.84 C68.74,144.40 69.28,145.02 69.69,145.80 ZM 163.71 104.15 C163.53,104.16 163.34,104.17 163.14,104.19 C161.62,104.37 160.83,105.12 160.74,106.24 C160.79,105.13 161.48,104.36 162.86,104.17 C163.13,104.13 163.42,104.12 163.71,104.15 ZM 31.65 139.18 C30.26,139.83 28.61,140.06 26.89,139.91 C28.45,140.01 30.03,139.76 31.65,139.18 ZM 152.14 13.76 C154.69,15.23 156.66,21.13 155.07,25.32 C156.36,21.93 155.28,16.56 152.87,14.38 C152.60,14.14 152.36,13.93 152.14,13.76 ZM 185.63 99.91 C186.53,99.00 187.68,97.17 188.57,95.39 C187.75,97.17 186.60,99.03 185.63,99.91 ZM 124.87 20.91 C123.27,21.23 122.00,20.97 122.00,19.95 C122.00,20.82 123.29,21.11 124.87,20.91 ZM 149.56 157.51 C148.46,158.35 147.31,158.82 145.96,158.89 C147.23,158.71 148.70,158.16 149.56,157.51 ZM 37.83 150.10 C39.28,149.88 40.73,149.47 41.89,148.96 C40.73,149.57 39.31,149.95 37.83,150.10 ZM 5.19 110.40 C5.69,111.07 6.40,111.81 7.32,112.65 C7.71,113.01 8.08,113.34 8.42,113.63 C7.08,112.60 5.93,111.46 5.19,110.40 ZM 21.23 138.00 C21.21,137.99 21.20,137.98 21.18,137.97 C19.53,136.96 18.57,135.97 18.28,135.09 C18.73,136.04 19.74,137.09 21.23,138.00 ZM 134.57 137.17 C135.29,136.76 135.93,136.82 136.45,137.32 C136.16,137.10 135.81,137.00 135.42,137.00 C135.13,137.00 134.84,137.06 134.57,137.17 ZM 184.05 88.51 C185.08,87.73 186.07,86.68 186.93,85.45 C186.11,86.71 185.19,87.70 184.05,88.51 ZM 181.14 50.05 C182.25,49.85 183.00,50.21 182.99,51.25 C183.00,50.34 182.21,49.96 181.14,50.05 ZM 55.23 165.89 C54.32,165.67 53.82,165.30 53.70,164.77 C53.91,165.23 54.40,165.58 55.16,165.86 C55.18,165.87 55.21,165.88 55.23,165.89 ZM 44.68 23.29 C45.84,22.54 46.47,22.22 47.04,22.33 C46.45,22.36 45.63,22.68 44.68,23.29 ZM 15.93 42.49 C15.53,40.31 15.38,38.18 15.71,37.32 C15.42,38.08 15.56,40.27 15.93,42.49 ZM 173.64 95.72 C173.37,95.53 173.08,95.29 172.77,95.00 C172.52,94.77 172.26,94.54 171.99,94.33 C172.62,94.77 173.19,95.24 173.64,95.72 ZM 41.31 14.54 C41.72,15.38 41.98,16.59 41.98,18.19 C41.98,16.94 41.69,15.44 41.31,14.54 ZM 64.66 142.94 C64.06,143.60 63.71,145.66 63.67,147.94 C63.70,145.64 64.04,143.56 64.61,142.99 C64.62,142.98 64.64,142.96 64.66,142.94 ZM 169.13 89.15 C167.23,87.75 165.46,85.84 164.59,84.21 C165.48,85.83 167.27,87.75 169.13,89.15 ZM 155.79 50.06 C155.02,49.34 154.90,48.99 155.34,48.56 C155.01,48.98 155.13,49.39 155.79,50.06 ZM 185.38 110.17 C185.01,110.95 184.47,111.72 183.80,112.45 C184.49,111.62 185.01,110.86 185.38,110.17 ZM 7.27 106.07 C5.83,106.24 4.68,106.75 4.32,107.61 C4.33,107.59 4.33,107.57 4.34,107.56 C4.66,106.72 5.82,106.22 7.27,106.07 ZM 48.06 22.94 C48.21,23.07 48.37,23.23 48.55,23.41 C48.87,23.73 49.20,24.03 49.52,24.30 C48.93,23.85 48.43,23.39 48.06,22.94 ZM 58.00 10.84 C58.00,10.71 58.00,10.58 58.00,10.44 C58.00,8.88 58.68,7.03 59.61,5.49 C58.68,7.06 58.00,8.95 58.00,10.56 C58.00,10.65 58.00,10.75 58.00,10.84 ZM 186.69 78.09 C184.91,78.40 182.85,79.12 181.72,80.00 C182.90,79.07 184.94,78.37 186.69,78.09 ZM 44.53 21.03 C44.05,21.61 43.48,21.80 42.89,21.43 C43.42,21.76 44.02,21.55 44.53,21.03 ZM 44.53 27.33 C44.07,27.12 43.66,27.00 43.37,27.00 C41.21,27.00 41.77,25.20 44.47,23.43 C44.50,23.41 44.52,23.39 44.55,23.38 C41.74,25.23 41.20,27.00 43.44,27.00 C43.70,27.00 44.08,27.12 44.53,27.33 ZM 189.40 80.40 C189.73,79.53 189.95,78.86 189.99,78.60 C190.00,78.63 190.00,78.66 190.00,78.68 C190.00,78.87 189.77,79.51 189.40,80.40 ZM 128.31 165.35 C129.50,165.78 130.72,165.99 132.00,166.00 C131.97,166.00 131.94,166.00 131.91,166.00 C130.65,166.00 129.51,165.81 128.31,165.35 ZM 34.04 47.80 C34.99,48.43 34.83,49.46 33.59,50.90 C34.81,49.45 34.97,48.43 34.04,47.80 ZM 49.27 7.48 C48.57,7.95 47.90,8.75 47.33,9.74 C47.92,8.70 48.60,7.87 49.27,7.48 ZM 127.00 2.00 C125.93,2.02 125.38,3.30 125.36,5.02 C125.37,3.29 125.92,2.00 126.98,2.00 C126.99,2.00 127.00,2.00 127.00,2.00 ZM 164.00 82.40 C164.00,82.39 164.00,82.38 164.00,82.37 C164.00,81.51 164.87,81.07 166.12,81.02 C164.89,81.08 164.02,81.53 164.00,82.40 ZM 37.48 123.61 C37.85,123.32 38.22,123.08 38.56,122.92 C38.27,123.09 37.93,123.31 37.53,123.57 C37.51,123.58 37.50,123.60 37.48,123.61 ZM 27.44 103.52 C28.92,103.12 30.00,103.38 30.00,104.51 C30.00,103.39 28.91,103.14 27.44,103.52 ZM 25.83 63.24 C24.11,64.28 21.95,65.00 19.98,65.00 C21.92,65.00 24.10,64.27 25.83,63.24 ZM 66.77 16.72 C66.36,16.19 65.82,15.72 65.23,15.43 C65.89,15.76 66.40,16.21 66.77,16.72 ZM 34.04 47.80 C33.25,47.26 31.70,47.00 29.37,47.00 C31.71,47.00 33.26,47.26 34.04,47.80 ZM 30.05 148.44 C30.29,148.62 30.55,148.79 30.82,148.95 C30.54,148.79 30.28,148.62 30.05,148.44 ZM 24.45 32.82 C24.70,33.81 25.08,34.72 25.57,35.47 C25.06,34.69 24.69,33.79 24.45,32.82 ZM 143.99 34.66 C143.50,34.58 142.99,34.41 142.40,34.14 C143.00,34.40 143.50,34.58 143.99,34.66 ZM 170.48 132.22 C169.60,131.99 168.45,131.80 167.00,131.64 C168.45,131.80 169.61,131.99 170.48,132.22 ZM 122.78 143.61 C122.91,143.54 123.05,143.49 123.18,143.44 C123.19,143.44 123.20,143.44 123.21,143.43 C123.06,143.48 122.92,143.54 122.78,143.61 Z" fill="rgb(227,198,164)"/>
<path d="M 0.00 134.92 L 0.00 95.83 L 3.90 98.92 C6.05,100.62 9.23,102.30 10.98,102.65 C13.08,103.07 14.47,104.10 15.08,105.71 C16.38,109.14 16.27,109.30 13.78,107.56 C10.86,105.51 5.12,105.51 4.34,107.56 C3.49,109.78 8.49,114.64 13.41,116.39 L 17.50 117.84 L 14.22 117.92 C10.19,118.02 9.06,120.30 11.63,123.14 C14.46,126.27 18.93,128.24 22.15,127.76 C23.83,127.52 25.51,127.91 26.16,128.69 C27.64,130.48 26.80,131.19 22.27,131.92 C17.27,132.73 16.80,135.30 21.18,137.97 C24.79,140.17 29.06,140.58 32.00,139.00 C33.39,138.26 34.28,138.42 35.51,139.65 C37.04,141.19 36.90,141.39 33.45,142.58 C28.01,144.45 27.19,145.63 29.63,148.07 C32.18,150.62 38.96,150.91 42.44,148.63 C43.81,147.73 45.66,147.32 46.62,147.68 C47.96,148.20 48.20,147.96 47.68,146.61 C47.31,145.65 47.69,143.57 48.51,141.99 C49.33,140.40 50.00,138.20 50.00,137.10 C50.00,134.57 47.96,130.00 46.82,130.00 C45.47,130.00 42.01,136.28 42.00,138.75 C42.00,141.54 40.86,141.61 38.48,138.98 C36.71,137.02 36.72,136.87 38.86,133.98 C41.05,131.02 41.96,125.36 40.60,123.17 C39.43,121.28 35.24,124.73 33.95,128.66 L 32.79 132.15 L 30.40 129.90 C27.51,127.19 27.34,125.34 29.90,124.53 C33.78,123.30 36.76,113.00 33.24,113.00 C31.05,113.00 26.00,117.57 26.00,119.54 C26.00,121.31 24.82,121.42 23.20,119.80 C21.24,117.84 21.83,115.40 24.55,114.16 C27.01,113.04 30.00,107.74 30.00,104.51 C30.00,102.06 24.96,103.72 21.77,107.23 L 19.04 110.23 L 18.02 107.55 C16.58,103.76 16.62,103.66 20.44,101.60 C22.60,100.44 24.43,98.39 25.34,96.12 C26.78,92.55 26.76,92.50 24.25,92.17 C22.80,91.98 20.50,92.73 18.89,93.92 C15.31,96.57 15.00,96.53 15.00,93.50 C15.00,91.98 15.57,91.00 16.45,91.00 C20.61,91.00 26.00,85.95 26.00,82.05 C26.00,80.25 20.40,80.90 17.73,83.00 C14.23,85.75 13.83,85.56 14.19,81.26 C14.48,77.76 14.75,77.48 18.44,76.89 C22.38,76.25 26.42,72.76 25.70,70.60 C25.13,68.84 21.09,68.71 18.56,70.37 C15.69,72.25 15.22,71.85 15.79,68.01 C16.19,65.28 16.57,65.00 19.98,65.00 C24.06,65.00 29.00,61.89 29.00,59.33 C29.00,58.12 27.96,57.88 24.00,58.15 C18.63,58.53 18.51,58.42 19.95,54.63 C20.84,52.29 21.24,52.17 26.20,52.68 C30.69,53.14 31.78,52.91 33.35,51.17 C35.92,48.33 34.66,47.00 29.37,47.00 C25.17,47.00 24.91,46.85 25.54,44.75 C26.68,40.96 28.47,39.65 30.82,40.90 C36.13,43.75 44.69,40.73 40.40,37.52 C39.35,36.73 37.29,35.82 35.81,35.48 C34.09,35.09 33.30,34.38 33.63,33.51 C34.34,31.67 37.00,30.76 38.38,31.88 C38.99,32.38 41.16,33.25 43.19,33.80 C46.04,34.58 47.30,34.49 48.69,33.41 C50.40,32.08 50.35,31.87 47.69,29.50 C46.15,28.13 44.24,27.00 43.44,27.00 C41.19,27.00 41.75,25.21 44.59,23.35 C46.16,22.32 47.43,22.04 47.84,22.64 C49.16,24.58 53.49,27.00 55.66,27.00 C59.37,27.00 59.59,24.85 56.17,22.00 C52.45,18.89 52.34,18.42 55.01,16.99 C56.65,16.12 57.66,16.40 60.46,18.54 C62.36,19.98 64.71,21.01 65.70,20.82 C68.25,20.33 67.94,16.78 65.23,15.43 C61.90,13.77 61.83,13.56 63.48,10.40 C65.28,6.93 65.44,3.39 63.84,2.40 C61.95,1.23 58.00,6.68 58.00,10.44 C58.00,13.19 57.57,13.85 55.50,14.24 C53.35,14.66 53.00,14.35 52.98,12.11 C52.96,8.55 51.55,6.58 49.56,7.34 C47.38,8.17 44.96,14.11 45.67,16.85 C46.28,19.17 44.35,22.34 42.89,21.43 C42.40,21.13 41.99,19.67 41.98,18.19 C41.95,11.76 37.96,11.46 35.35,17.70 C34.16,20.56 34.03,22.20 34.81,24.72 C35.69,27.60 35.55,28.21 33.66,29.53 C31.61,30.96 31.47,30.89 30.91,28.18 C30.13,24.42 29.19,23.00 27.48,23.00 C24.08,23.00 22.82,31.27 25.57,35.47 C27.01,37.66 26.99,38.08 25.39,40.53 L 23.64 43.19 L 21.80 39.60 C19.93,35.95 16.70,34.74 15.71,37.32 C15.00,39.17 16.53,46.93 17.88,48.28 C19.35,49.75 19.29,51.22 17.67,53.43 C16.41,55.16 16.21,55.12 13.72,52.63 C10.74,49.65 8.50,49.26 7.61,51.58 C6.48,54.52 6.99,55.98 10.50,59.87 C12.43,62.00 14.00,64.70 14.00,65.87 C14.00,68.51 13.48,68.52 10.27,66.00 C7.36,63.71 4.44,63.40 3.71,65.30 C2.84,67.59 5.82,72.99 8.96,74.77 C11.19,76.05 11.99,77.23 11.99,79.29 C12.00,81.73 11.77,81.94 10.06,81.03 C8.99,80.46 7.83,79.54 7.50,78.99 C7.16,78.45 5.33,78.00 3.44,78.00 L 0.00 78.00 L 0.00 39.00 L 0.00 0.00 L 262.50 0.00 L 525.00 0.00 L 525.00 87.00 L 525.00 174.00 L 262.50 174.00 L 0.00 174.00 L 0.00 134.92 ZM 91.96 169.87 L 94.83 167.75 L 97.97 169.98 C101.69,172.63 103.57,171.69 100.13,168.91 C98.22,167.35 98.00,166.71 98.97,165.53 C100.45,163.75 109.01,160.49 114.65,159.55 C118.39,158.93 119.26,159.21 123.48,162.43 C126.92,165.06 129.14,166.00 131.91,166.00 C133.98,166.00 135.94,165.73 136.27,165.40 C137.34,164.32 134.94,160.48 131.94,158.47 C128.50,156.16 128.30,155.36 130.94,154.52 C132.09,154.15 134.91,154.94 137.91,156.45 C143.65,159.36 146.78,159.64 149.56,157.51 C151.45,156.05 151.41,155.93 148.37,153.13 C146.65,151.55 144.63,150.02 143.87,149.75 C142.80,149.36 142.76,148.97 143.70,147.98 C144.67,146.95 145.38,147.02 147.41,148.35 C150.95,150.67 159.19,150.55 161.35,148.16 C162.91,146.45 162.90,146.22 161.19,144.67 C160.19,143.77 157.94,142.74 156.18,142.39 C152.74,141.70 152.26,140.86 154.32,139.15 C155.25,138.38 156.73,138.36 159.38,139.10 C164.20,140.43 168.16,139.53 171.06,136.43 C173.91,133.40 172.98,132.29 167.00,131.64 C164.52,131.37 162.37,131.12 162.21,131.08 C162.06,131.03 162.41,130.10 163.00,128.99 C163.89,127.34 164.73,127.09 167.82,127.59 C170.66,128.04 172.48,127.65 175.31,125.98 C181.76,122.17 182.35,118.20 176.50,117.94 C175.17,117.89 175.89,117.24 178.63,116.02 C183.07,114.05 186.00,110.72 186.00,107.64 C186.00,105.90 185.48,105.79 180.42,106.38 C175.49,106.96 174.88,106.84 175.18,105.31 C175.38,104.25 177.08,103.19 179.63,102.55 C181.89,101.97 184.55,100.82 185.53,100.00 C187.55,98.30 190.41,92.07 189.56,91.22 C188.99,90.65 181.95,92.12 178.74,93.48 C175.07,95.03 178.10,91.49 181.97,89.70 C184.75,88.42 186.47,86.67 187.94,83.63 C189.07,81.29 190.00,79.06 190.00,78.68 C190.00,77.18 184.12,78.12 181.72,80.00 C180.32,81.10 178.52,81.75 177.72,81.45 C176.79,81.09 176.06,81.68 175.69,83.06 L 175.12 85.24 L 172.43 83.12 C169.37,80.72 164.00,80.24 164.00,82.37 C164.00,84.68 168.16,89.17 171.67,90.63 C174.30,91.73 175.00,92.60 174.98,94.76 C174.98,96.27 174.64,97.02 174.23,96.44 C172.71,94.25 168.46,92.00 165.83,92.00 C163.22,92.00 163.15,92.13 164.18,95.09 C164.77,96.78 166.92,99.38 168.96,100.85 C171.09,102.40 172.48,104.16 172.25,105.02 C171.07,109.33 170.98,109.36 168.08,106.58 C166.22,104.80 164.39,103.95 162.86,104.17 C159.41,104.65 160.26,108.70 164.67,112.88 C168.17,116.18 168.21,116.31 166.75,119.38 L 165.26 122.50 L 163.71 118.83 C161.12,112.66 155.00,111.07 155.00,116.57 C155.00,118.24 156.27,120.47 158.50,122.70 C160.43,124.62 162.00,126.76 162.00,127.45 C162.00,128.69 158.20,132.68 157.74,131.91 C157.61,131.68 156.60,129.70 155.50,127.50 C153.04,122.58 149.58,121.56 148.60,125.47 C147.91,128.23 149.07,131.21 152.19,134.63 C154.13,136.76 154.12,136.78 151.19,138.86 L 148.25 140.96 L 147.63 137.11 C146.96,132.87 144.83,130.47 142.54,131.35 C140.35,132.19 139.51,136.90 140.93,140.43 C143.24,146.16 143.22,146.58 140.57,147.79 C138.02,148.95 138.00,148.92 138.00,144.56 C138.00,136.76 135.61,134.61 132.40,139.52 C131.16,141.41 130.91,143.23 131.39,146.85 C131.98,151.33 131.85,151.75 129.47,152.83 C125.94,154.44 126.05,154.57 126.29,149.08 C126.53,143.52 125.99,142.55 123.18,143.44 C120.93,144.16 119.20,147.92 118.79,152.99 C118.51,156.42 118.38,156.52 112.25,157.83 C108.81,158.57 106.00,159.61 106.00,160.15 C106.00,160.68 105.57,160.85 105.04,160.52 C104.51,160.20 101.89,161.03 99.23,162.39 L 94.38 164.84 L 91.01 162.71 C89.16,161.54 84.02,159.62 79.57,158.45 L 71.50 156.32 L 70.96 151.04 C70.56,147.10 69.82,145.27 68.05,143.84 C66.36,142.47 65.37,142.23 64.61,142.99 C63.60,144.00 63.34,149.66 64.14,153.00 C64.40,154.07 63.83,154.41 62.14,154.17 C60.84,153.99 60.04,154.26 60.37,154.78 C60.69,155.30 59.10,157.62 56.84,159.93 C51.82,165.04 52.62,166.44 60.35,166.12 C62.18,166.04 64.47,164.73 66.74,162.46 C70.07,159.13 70.55,158.96 74.89,159.59 C79.78,160.31 88.63,163.45 90.79,165.24 C91.81,166.09 91.51,166.90 89.35,169.15 C86.16,172.49 87.81,172.94 91.96,169.87 ZM 52.11 156.70 C53.97,155.44 56.18,154.14 57.02,153.82 C58.99,153.07 59.16,139.76 57.22,137.82 C54.78,135.38 52.50,138.18 52.49,143.62 C52.49,148.10 52.30,148.47 50.24,148.19 C49.01,148.02 48.00,148.32 48.00,148.87 C48.00,149.42 46.99,150.17 45.75,150.55 C43.42,151.25 39.00,154.84 39.00,156.02 C39.00,157.11 43.28,158.86 46.11,158.93 C47.55,158.97 50.25,157.97 52.11,156.70 ZM 106.50 145.59 C120.32,139.05 133.49,126.68 139.52,114.59 C141.97,109.68 142.00,109.26 142.00,84.05 C141.99,60.51 141.84,58.25 140.05,55.31 C137.44,51.04 129.25,45.66 119.50,41.81 C112.32,38.98 110.16,38.61 98.45,38.22 C88.51,37.88 83.87,38.17 78.95,39.42 C71.32,41.35 59.46,46.78 54.35,50.68 C48.33,55.28 48.00,57.03 48.00,84.77 C48.00,109.21 48.04,109.69 50.48,114.55 C56.14,125.86 68.50,137.69 81.48,144.24 C94.49,150.81 95.37,150.86 106.50,145.59 ZM 230.07 124.96 C233.48,123.14 232.31,121.77 227.97,122.51 C222.66,123.40 219.00,121.17 219.00,117.05 C219.00,112.65 221.48,110.79 226.81,111.17 C232.13,111.56 233.67,109.59 229.33,107.93 C225.68,106.54 221.20,107.46 218.30,110.19 C215.69,112.64 215.10,119.48 217.25,122.18 C220.12,125.78 226.11,127.08 230.07,124.96 ZM 251.08 123.08 C255.91,118.24 254.56,111.32 248.14,108.03 C244.64,106.23 239.52,107.59 236.56,111.11 C233.08,115.24 233.21,119.36 236.92,123.08 C241.04,127.19 246.96,127.19 251.08,123.08 ZM 261.20 120.75 L 261.50 115.50 L 264.26 119.75 C265.78,122.09 267.36,124.00 267.76,124.00 C268.17,123.99 269.72,121.86 271.22,119.25 L 273.94 114.50 L 273.97 120.25 C274.00,125.32 274.24,126.00 276.00,126.00 C277.85,126.00 278.00,125.33 278.00,117.00 C278.00,109.09 277.79,108.00 276.25,108.00 C275.19,108.00 273.40,109.97 271.71,112.97 C270.18,115.69 268.53,118.17 268.04,118.47 C267.56,118.77 265.74,116.54 264.01,113.51 C262.27,110.48 260.25,108.00 259.51,108.00 C257.81,108.00 256.95,111.93 257.11,119.00 C257.25,125.19 257.53,126.00 259.51,126.00 C260.48,126.00 260.99,124.42 261.20,120.75 ZM 286.20 120.75 L 286.50 115.50 L 289.26 119.75 C290.78,122.09 292.36,124.00 292.76,124.00 C293.17,123.99 294.72,121.86 296.22,119.25 L 298.94 114.50 L 298.97 120.25 C299.00,125.32 299.24,126.00 301.00,126.00 C302.85,126.00 303.00,125.33 303.00,117.00 C303.00,108.93 302.81,108.00 301.16,108.00 C299.98,108.00 298.34,109.79 296.61,112.97 C295.13,115.70 293.51,118.18 293.03,118.48 C292.55,118.78 290.74,116.54 289.01,113.51 C286.86,109.76 285.22,108.00 283.89,108.00 C282.05,108.00 281.95,108.54 282.42,115.75 C282.70,120.01 282.95,124.06 282.97,124.75 C282.98,125.44 283.65,126.00 284.45,126.00 C285.49,126.00 285.98,124.53 286.20,120.75 ZM 321.10 124.12 C323.04,122.55 323.49,121.09 323.82,115.12 C324.20,108.41 324.10,108.00 322.11,108.00 C320.19,108.00 320.00,108.55 320.00,114.30 C320.00,120.98 318.96,123.00 315.50,123.00 C312.04,123.00 311.00,120.98 311.00,114.30 C311.00,108.55 310.81,108.00 308.89,108.00 C306.90,108.00 306.80,108.41 307.18,115.12 C307.64,123.28 309.72,126.00 315.50,126.00 C317.30,126.00 319.82,125.15 321.10,124.12 ZM 332.20 120.25 L 332.50 114.50 L 337.00 120.19 C339.48,123.33 342.29,125.91 343.25,125.94 C344.79,125.99 345.00,124.93 345.00,117.00 C345.00,108.74 344.84,108.00 343.05,108.00 C341.38,108.00 341.06,108.82 340.80,113.68 L 340.50 119.35 L 336.13 113.68 C333.56,110.34 330.98,108.00 329.88,108.00 C328.18,108.00 328.00,108.86 328.00,117.00 C328.00,125.26 328.16,126.00 329.95,126.00 C331.62,126.00 331.94,125.18 332.20,120.25 ZM 353.00 116.93 C353.00,108.83 352.81,107.89 351.25,108.19 C349.84,108.46 349.44,109.77 349.20,114.98 C348.83,122.72 349.52,126.00 351.52,126.00 C352.72,126.00 353.00,124.27 353.00,116.93 ZM 365.00 118.61 L 365.00 111.22 L 368.61 110.80 C371.99,110.40 372.42,110.68 375.10,114.94 C376.70,117.49 377.97,120.93 377.98,122.75 C377.99,124.96 378.48,126.00 379.50,126.00 C380.50,126.00 381.00,125.00 381.00,122.98 C381.00,121.32 382.05,118.28 383.34,116.23 C387.79,109.14 388.24,108.00 386.55,108.00 C385.71,108.00 383.82,109.82 382.35,112.05 L 379.67 116.10 L 377.08 112.06 L 374.50 108.01 L 365.25 108.01 C357.69,108.00 356.00,108.27 356.00,109.50 C356.00,110.43 356.94,111.00 358.50,111.00 C360.88,111.00 361.01,111.30 361.12,117.00 C361.19,120.30 361.36,123.45 361.50,124.00 C361.64,124.55 361.81,125.22 361.88,125.50 C361.94,125.78 362.67,126.00 363.50,126.00 C364.70,126.00 365.00,124.51 365.00,118.61 ZM 412.04 124.46 C412.93,123.39 413.00,122.60 412.27,121.87 C411.54,121.14 411.02,121.16 410.55,121.91 C409.45,123.71 404.14,123.14 402.00,121.00 C399.45,118.45 399.44,114.82 401.98,112.52 C403.49,111.16 405.02,110.86 408.49,111.25 C413.39,111.80 414.87,110.96 412.48,108.98 C410.02,106.94 403.44,107.29 400.30,109.62 C395.48,113.20 396.11,122.29 401.36,124.83 C404.64,126.42 410.58,126.21 412.04,124.46 ZM 432.08 123.08 C436.84,118.31 435.85,111.53 429.94,108.47 C425.73,106.29 420.65,107.44 417.40,111.31 C409.78,120.35 423.67,131.48 432.08,123.08 ZM 452.00 124.50 C452.00,123.37 450.78,123.00 447.00,123.00 L 442.00 123.00 L 442.00 115.50 C442.00,109.50 441.70,108.00 440.50,108.00 C439.28,108.00 439.00,109.67 439.00,117.00 L 439.00 126.00 L 445.50 126.00 C450.61,126.00 452.00,125.68 452.00,124.50 ZM 467.00 124.50 C467.00,123.39 465.83,123.00 462.50,123.00 L 458.00 123.00 L 458.00 115.50 C458.00,108.67 457.82,108.00 456.00,108.00 C454.15,108.00 454.00,108.67 454.00,117.00 L 454.00 126.00 L 460.50 126.00 C465.61,126.00 467.00,125.68 467.00,124.50 ZM 484.00 124.50 C484.00,123.37 482.78,123.00 479.00,123.00 C474.33,123.00 474.00,122.83 474.00,120.50 C474.00,118.25 474.40,118.00 478.00,118.00 C480.89,118.00 482.00,117.58 482.00,116.50 C482.00,115.42 480.89,115.00 478.00,115.00 C474.70,115.00 474.00,114.66 474.00,113.05 C474.00,111.45 474.82,111.06 478.67,110.80 C481.28,110.63 483.53,109.95 483.76,109.25 C484.06,108.33 482.30,108.00 477.08,108.00 L 470.00 108.00 L 470.00 117.00 L 470.00 126.00 L 477.00 126.00 C482.56,126.00 484.00,125.69 484.00,124.50 ZM 501.42 125.39 C503.58,124.56 503.66,117.00 501.50,117.00 C500.50,117.00 500.00,118.00 500.00,120.00 C500.00,122.61 499.64,123.00 497.22,123.00 C491.65,123.00 488.06,117.60 490.79,113.31 C492.16,111.16 496.93,109.89 499.17,111.09 C500.65,111.88 501.52,111.88 502.31,111.09 C504.17,109.23 501.30,107.50 496.37,107.50 C492.51,107.50 491.40,107.99 488.92,110.77 C487.31,112.56 486.00,114.95 486.00,116.07 C486.00,118.82 488.60,123.67 490.75,124.92 C492.70,126.05 498.97,126.33 501.42,125.39 ZM 522.00 124.50 C522.00,123.35 520.72,123.00 516.50,123.00 C511.30,123.00 511.00,122.86 511.00,120.50 C511.00,118.20 511.37,118.00 515.50,118.00 C518.83,118.00 520.00,117.61 520.00,116.50 C520.00,115.39 518.83,115.00 515.50,115.00 C511.67,115.00 511.00,114.70 511.00,113.00 C511.00,111.27 511.67,111.00 516.00,111.00 C519.78,111.00 521.00,110.63 521.00,109.50 C521.00,108.32 519.61,108.00 514.50,108.00 L 508.00 108.00 L 508.00 117.00 L 508.00 126.00 L 515.00 126.00 C520.56,126.00 522.00,125.69 522.00,124.50 ZM 431.60 86.94 C435.49,84.53 436.02,83.32 435.10,78.91 L 434.38 75.50 L 433.71 78.78 C432.62,84.10 428.94,87.00 423.27,87.00 C415.02,87.00 411.00,82.08 411.00,72.00 C411.00,62.34 415.39,57.00 423.32,57.00 C427.07,57.00 431.66,60.02 433.02,63.39 C433.69,65.06 433.89,64.60 433.94,61.23 C433.99,57.53 433.65,56.82 431.43,55.98 C430.02,55.44 426.07,55.00 422.65,55.00 C415.50,55.00 408.85,57.81 405.67,62.18 C403.27,65.47 402.38,73.59 403.91,78.22 C407.19,88.16 422.06,92.84 431.60,86.94 ZM 252.01 71.27 C254.27,64.00 256.55,57.78 257.06,57.46 C259.00,56.26 257.89,55.00 254.89,55.00 C252.68,55.00 251.94,55.39 252.31,56.37 C252.82,57.70 249.04,72.29 247.88,73.45 C247.56,73.77 245.44,69.98 243.17,65.02 C240.90,60.06 238.64,56.00 238.16,56.00 C237.67,56.00 235.57,60.06 233.49,65.02 C231.41,69.98 229.45,73.79 229.14,73.48 C227.96,72.29 223.07,57.69 223.58,56.87 C223.88,56.39 221.83,56.00 219.03,56.00 L 213.95 56.00 L 215.33 58.75 C216.09,60.26 218.88,67.46 221.52,74.75 C224.17,82.04 226.71,88.00 227.17,88.00 C227.62,88.00 228.00,87.54 228.00,86.98 C228.00,85.42 235.42,68.02 236.09,68.01 C236.41,68.00 238.86,72.79 241.54,78.64 C245.73,87.79 246.51,88.94 247.15,86.89 C247.56,85.58 249.74,78.55 252.01,71.27 ZM 273.64 87.73 C272.09,86.59 271.93,84.76 272.20,71.22 L 272.50 56.00 L 268.83 56.00 C266.81,56.00 264.34,55.70 263.33,55.33 C261.58,54.69 261.58,54.75 263.25,56.66 C265.72,59.48 265.87,84.99 263.43,87.43 C262.00,88.86 262.47,89.00 268.62,89.00 C274.35,89.00 275.11,88.80 273.64,87.73 ZM 291.18 87.72 C290.03,86.33 289.31,69.35 290.36,68.31 C290.70,67.96 295.69,72.25 301.43,77.84 C307.18,83.43 312.24,88.00 312.69,88.00 C313.13,88.00 313.35,81.45 313.18,73.44 C312.95,63.18 313.20,58.46 314.05,57.44 C315.06,56.22 314.52,56.00 310.48,56.00 L 305.71 56.00 L 306.26 66.00 C306.62,72.47 306.45,76.00 305.80,76.00 C305.24,76.00 299.93,71.28 294.00,65.50 C288.07,59.72 283.06,55.00 282.86,55.00 C282.66,55.00 282.64,61.91 282.82,70.36 C283.09,83.54 282.90,85.95 281.50,87.36 C279.98,88.88 280.31,89.00 286.05,89.00 C290.98,89.00 292.03,88.74 291.18,87.72 ZM 348.33 85.70 C353.19,81.99 355.00,78.22 355.00,71.80 C354.99,65.54 352.58,60.93 347.76,57.99 C345.03,56.33 342.71,56.01 333.50,56.00 L 322.50 56.00 L 322.80 71.22 C323.07,84.94 322.93,86.59 321.30,87.81 C319.76,88.97 321.31,89.12 332.08,88.83 C344.07,88.52 344.83,88.37 348.33,85.70 ZM 377.75 87.92 C376.35,87.10 376.00,85.51 376.00,79.93 C376.00,73.50 376.33,72.42 380.13,66.23 C382.41,62.53 385.36,58.49 386.69,57.25 L 389.11 55.00 L 384.65 55.00 C380.78,55.00 380.25,55.25 380.68,56.87 C381.15,58.67 375.50,70.02 374.15,69.98 C373.04,69.95 366.94,57.91 367.55,56.93 C367.86,56.42 367.25,56.00 366.20,56.00 C365.14,56.00 362.08,55.73 359.39,55.39 C354.71,54.81 354.59,54.85 356.68,56.40 C357.88,57.29 360.92,61.40 363.43,65.54 C367.66,72.52 368.00,73.57 368.00,79.84 C368.00,83.76 367.50,87.10 366.80,87.80 C365.87,88.73 367.14,88.99 372.55,88.97 C377.76,88.95 379.06,88.68 377.75,87.92 ZM 452.64 87.73 C451.09,86.59 450.93,84.77 451.20,71.30 L 451.50 56.15 L 448.56 55.72 C442.40,54.82 442.47,54.64 442.80,71.27 C443.07,84.77 442.91,86.59 441.36,87.73 C439.89,88.80 440.77,89.00 447.00,89.00 C453.23,89.00 454.11,88.80 452.64,87.73 ZM 477.75 87.92 C476.21,87.02 476.00,85.16 476.00,72.45 L 476.00 58.00 L 480.30 58.00 C482.67,58.00 485.08,58.48 485.67,59.07 C486.43,59.83 486.87,59.47 487.18,57.82 L 487.63 55.50 L 472.31 55.48 L 457.00 55.46 L 457.03 58.48 C457.06,61.01 457.22,61.22 458.08,59.75 C458.81,58.50 460.37,58.00 463.55,58.00 L 468.00 58.00 L 468.00 72.30 C468.00,82.09 467.62,86.98 466.80,87.80 C465.87,88.73 467.14,88.99 472.55,88.97 C477.76,88.95 479.06,88.68 477.75,87.92 ZM 511.75 87.92 C510.34,87.10 510.00,85.51 510.02,79.70 C510.03,72.79 510.23,72.19 515.00,64.75 C517.74,60.49 520.54,56.99 521.24,56.98 C523.79,56.95 519.50,55.03 516.84,55.02 C514.75,55.00 514.29,55.39 514.67,56.85 C514.94,57.86 513.60,61.49 511.70,64.91 L 508.26 71.13 L 504.61 64.50 C502.61,60.85 501.22,57.45 501.54,56.93 C501.87,56.40 499.69,56.00 496.40,56.00 C491.04,56.00 490.78,56.11 492.23,57.75 C493.08,58.71 495.63,62.55 497.89,66.27 C501.63,72.43 502.00,73.64 502.00,79.82 C502.00,83.76 501.50,87.10 500.80,87.80 C499.87,88.73 501.14,88.99 506.55,88.97 C511.76,88.95 513.06,88.68 511.75,87.92 ZM 186.00 68.63 C186.00,67.82 186.27,66.45 186.61,65.58 C187.60,62.99 182.28,63.62 179.47,66.44 C177.88,68.03 176.80,68.49 176.35,67.76 C175.94,67.09 175.34,67.54 174.83,68.93 C174.21,70.61 173.53,71.01 172.24,70.46 C169.09,69.11 165.25,68.79 164.61,69.82 C163.43,71.72 168.95,77.00 172.12,77.00 C173.77,77.00 175.31,77.64 175.62,78.46 C176.03,79.52 177.49,78.60 181.09,75.00 C183.79,72.30 186.00,69.44 186.00,68.63 ZM 176.00 64.89 C176.00,64.29 177.11,62.92 178.47,61.85 C180.66,60.12 182.98,54.69 182.99,51.25 C183.00,48.94 179.26,49.97 176.16,53.14 L 173.09 56.29 L 171.87 53.62 C170.83,51.33 170.97,50.40 172.83,47.09 C175.15,42.96 175.61,38.44 173.95,36.00 C173.11,34.75 172.38,35.13 169.57,38.31 L 166.19 42.11 L 164.61 39.86 C163.21,37.85 163.20,37.35 164.52,35.34 C166.13,32.87 166.48,26.31 165.11,24.15 C164.64,23.41 163.42,22.96 162.40,23.16 C160.76,23.48 160.14,24.64 158.29,31.00 C157.94,32.18 157.46,32.02 155.97,30.20 C154.49,28.38 154.30,27.35 155.07,25.32 C157.19,19.73 152.98,11.12 149.52,13.98 C148.68,14.68 148.00,16.24 148.00,17.46 C148.00,20.18 147.23,21.03 145.40,20.32 C144.48,19.97 144.00,18.21 144.00,15.22 C144.00,12.38 143.38,9.97 142.35,8.83 C139.30,5.46 137.00,7.07 137.00,12.58 C137.00,13.91 136.81,15.00 136.58,15.00 C134.42,15.00 132.89,13.16 132.38,9.95 C131.78,6.24 128.90,2.00 126.98,2.00 C124.88,2.00 124.81,7.02 126.86,10.49 C128.00,12.42 128.48,14.00 127.92,14.00 C126.59,14.00 122.00,18.62 122.00,19.95 C122.00,22.00 127.13,20.96 129.69,18.40 C131.89,16.20 132.64,15.97 134.64,16.88 C137.63,18.24 137.60,19.08 134.50,22.00 C131.10,25.19 131.30,27.00 135.05,27.00 C136.96,27.00 139.02,26.07 140.59,24.50 C142.96,22.13 143.21,22.09 145.54,23.62 C148.71,25.69 148.64,26.32 145.10,27.66 C143.51,28.26 141.69,29.71 141.06,30.88 C140.08,32.72 140.26,33.16 142.40,34.14 C144.46,35.07 145.50,34.90 148.50,33.13 C152.92,30.53 154.22,30.48 156.35,32.83 C158.33,35.02 157.61,36.00 153.99,36.00 C152.52,36.00 150.53,36.86 149.57,37.92 C147.91,39.75 147.93,39.89 150.03,41.02 C151.24,41.66 153.64,41.96 155.36,41.68 C157.09,41.39 159.37,41.01 160.44,40.83 C161.71,40.62 162.83,41.37 163.67,43.00 C164.89,45.39 164.81,45.52 161.73,46.00 C159.95,46.28 157.60,47.06 156.50,47.75 C154.53,48.98 154.54,49.04 157.00,51.11 C159.03,52.83 160.35,53.12 164.17,52.67 C168.64,52.14 168.89,52.24 169.87,55.06 L 170.90 58.00 L 166.51 58.00 C161.27,58.00 160.37,59.00 162.87,62.08 C164.13,63.65 166.28,64.59 169.61,65.06 C172.30,65.43 174.84,65.79 175.25,65.87 C175.66,65.94 176.00,65.50 176.00,64.89 ZM 91.95 34.36 C96.10,34.06 101.53,34.28 104.00,34.86 C107.32,35.63 108.60,35.61 108.90,34.76 C109.12,34.13 110.35,32.56 111.65,31.26 C114.43,28.48 114.70,26.70 112.25,27.24 C111.29,27.45 110.61,28.15 110.75,28.81 C110.89,29.48 109.91,30.00 108.50,30.00 C107.12,30.00 106.00,30.45 106.00,31.00 C106.00,31.55 105.53,32.00 104.96,32.00 C104.27,32.00 104.25,31.40 104.91,30.16 C105.45,29.15 105.64,27.35 105.33,26.16 C105.00,24.90 105.23,24.00 105.88,24.00 C106.50,24.00 107.00,23.29 107.00,22.43 C107.00,21.47 106.32,20.98 105.25,21.19 C104.29,21.38 103.50,22.20 103.50,23.01 C103.50,23.83 102.60,25.03 101.50,25.67 C98.68,27.33 95.79,24.70 96.65,21.26 C97.16,19.23 96.94,18.87 95.38,19.18 C94.12,19.43 93.60,20.25 93.80,21.69 C93.96,22.86 93.62,24.11 93.05,24.47 C92.47,24.83 92.00,25.99 92.00,27.06 C92.00,28.13 91.55,29.00 91.00,29.00 C90.45,29.00 90.00,28.37 90.00,27.61 C90.00,26.84 89.32,25.95 88.50,25.64 C87.68,25.32 87.00,24.15 87.00,23.03 C87.00,21.91 86.40,21.00 85.67,21.00 C83.60,21.00 82.91,22.18 84.12,23.65 C84.73,24.38 84.95,25.69 84.62,26.56 C84.28,27.43 84.47,29.01 85.04,30.07 C85.75,31.40 85.75,32.00 85.04,32.00 C84.47,32.00 84.00,31.55 84.00,31.00 C84.00,30.45 82.88,30.00 81.50,30.00 C78.62,30.00 78.61,30.04 80.18,33.49 C80.95,35.19 81.88,35.88 82.88,35.49 C83.72,35.17 87.80,34.66 91.95,34.36 ZM 79.75 28.25 C79.99,27.52 79.31,27.00 78.08,27.00 C76.85,27.00 76.00,27.65 76.00,28.57 C76.00,30.41 79.12,30.14 79.75,28.25 ZM 75.76 12.57 C77.20,11.14 74.74,9.00 71.65,9.00 C67.25,9.00 64.76,11.62 67.36,13.52 C68.99,14.72 74.20,14.13 75.76,12.57 ZM 123.91 13.08 C126.02,11.74 122.92,9.00 119.32,9.02 C115.10,9.04 113.29,10.44 114.94,12.42 C116.35,14.13 121.64,14.52 123.91,13.08 ZM 8.56 92.47 C7.49,91.66 5.13,91.00 3.31,91.00 C0.03,91.00 0.00,90.96 0.00,86.27 L 0.00 81.54 L 3.09 85.30 C4.80,87.36 7.72,89.69 9.59,90.47 C11.47,91.26 13.00,92.37 13.00,92.95 C13.00,94.43 10.85,94.20 8.56,92.47 ZM 91.75 139.31 C89.39,138.69 89.54,137.78 92.50,135.00 L 95.00 132.65 L 95.00 136.33 C95.00,138.35 94.66,139.95 94.25,139.88 C93.84,139.82 92.71,139.56 91.75,139.31 ZM 82.62 134.71 C81.02,133.54 81.50,132.84 87.93,127.13 C94.99,120.85 95.00,120.85 95.00,123.79 C95.00,126.02 93.81,127.84 90.04,131.36 C87.32,133.91 84.93,136.00 84.73,136.00 C84.54,136.00 83.59,135.42 82.62,134.71 ZM 74.98 129.48 C73.91,128.18 74.97,126.79 81.99,120.26 C86.55,116.03 91.34,111.74 92.64,110.71 L 95.00 108.85 L 95.00 111.70 C95.00,113.99 93.28,116.12 86.07,122.77 C81.16,127.30 76.94,131.00 76.70,131.00 C76.45,131.00 75.68,130.31 74.98,129.48 ZM 68.13 123.66 C67.18,122.51 69.46,119.89 80.35,109.62 C87.71,102.68 94.02,97.00 94.37,97.00 C94.72,97.00 94.99,98.24 94.97,99.75 C94.94,101.97 92.62,104.61 82.87,113.50 C76.23,119.55 70.46,124.63 70.05,124.78 C69.64,124.94 68.77,124.43 68.13,123.66 ZM 62.55 116.29 C62.01,114.90 64.17,112.32 72.18,104.76 C82.24,95.26 85.02,93.47 88.58,94.16 C89.80,94.40 86.59,97.87 77.64,106.00 C70.67,112.32 64.58,117.63 64.11,117.79 C63.63,117.95 62.93,117.28 62.55,116.29 ZM 58.69 109.35 C56.95,107.62 58.48,105.07 64.43,99.75 C69.45,95.26 71.57,94.00 74.10,94.00 C77.31,94.00 77.27,94.06 69.02,101.75 C60.01,110.15 59.71,110.38 58.69,109.35 ZM 58.00 96.67 C58.00,94.34 58.40,94.00 61.17,94.00 C62.91,94.00 64.15,94.11 63.92,94.25 C63.69,94.39 62.26,95.59 60.75,96.92 L 58.00 99.35 L 58.00 96.67 ZM 95.67 93.33 C95.30,92.97 95.00,82.39 95.00,69.83 L 95.00 47.00 L 99.25 47.01 C107.83,47.04 122.60,52.69 129.25,58.50 L 132.00 60.90 L 132.00 77.45 L 132.00 94.00 L 114.17 94.00 C104.36,94.00 96.03,93.70 95.67,93.33 ZM 115.19 84.00 C115.29,81.80 115.40,78.76 115.44,77.25 C115.47,75.74 116.06,74.05 116.74,73.50 C117.42,72.95 118.27,70.93 118.64,69.00 L 119.31 65.50 L 117.18 67.38 C116.01,68.42 115.29,69.66 115.58,70.13 C115.88,70.61 115.42,71.00 114.56,71.00 C112.32,71.00 112.63,69.70 115.50,67.00 C118.33,64.34 119.00,59.00 116.50,59.00 C115.68,59.00 115.00,58.50 115.00,57.88 C115.00,57.27 113.61,58.12 111.91,59.79 C110.21,61.45 108.97,63.53 109.16,64.40 C109.43,65.67 110.17,65.37 112.75,62.95 C114.54,61.27 116.00,60.35 116.00,60.91 C116.00,61.46 114.90,62.95 113.56,64.21 C110.03,67.52 108.45,72.11 110.45,73.23 C111.43,73.78 112.00,75.51 112.00,77.92 C112.00,86.70 114.81,92.06 115.19,84.00 ZM 239.65 121.17 C237.73,119.04 237.47,113.93 239.20,112.20 C239.86,111.54 242.02,111.00 244.00,111.00 C248.43,111.00 250.00,112.45 250.00,116.55 C250.00,122.24 243.32,125.22 239.65,121.17 ZM 420.65 121.17 C418.93,119.26 418.49,115.35 419.79,113.31 C420.20,112.66 421.83,111.64 423.41,111.04 C425.68,110.17 426.76,110.27 428.63,111.50 C430.94,113.01 431.43,114.42 431.04,118.50 C430.63,122.86 423.78,124.62 420.65,121.17 ZM 331.67 86.33 C331.30,85.97 331.00,79.44 331.00,71.83 L 331.00 58.00 L 335.57 58.00 C343.96,58.00 347.00,61.78 347.00,72.20 C346.99,82.00 342.97,87.00 335.10,87.00 C333.58,87.00 332.03,86.70 331.67,86.33 Z" fill="rgb(254,253,252)"/>
</g>
</svg>