<?xml version="1.0" encoding="UTF-8"?>
<svg version="1.1" xmlns="http://www.w3.org/2000/svg" width="525" height="174">
<path d="M0 0 C0.99 0.33 1.98 0.66 3 1 C3.36923077 7.4 3.36923077 7.4 1.5 10.4375 C1.005 10.953125 0.51 11.46875 0 12 C0.78375 12.433125 1.5675 12.86625 2.375 13.3125 C5 15 5 15 7 18 C7 18.99 7 19.98 7 21 C0.6 20.50769231 0.6 20.50769231 -2.4375 17.9375 C-3.2109375 16.9784375 -3.2109375 16.9784375 -4 16 C-5.65 16.66 -7.3 17.32 -9 18 C-8.01 18.763125 -7.02 19.52625 -6 20.3125 C-4.3125 21.61328125 -4.3125 21.61328125 -3 23 C-3 23.99 -3 24.98 -3 26 C-10.26153846 26.49230769 -10.26153846 26.49230769 -14 24 C-14.66 23.34 -15.32 22.68 -16 22 C-17.32 22.99 -18.64 23.98 -20 25 C-18.88625 25.391875 -17.7725 25.78375 -16.625 26.1875 C-13.68039334 27.42482967 -13.14117455 27.73606497 -11.5625 30.6875 C-11.376875 31.450625 -11.19125 32.21375 -11 33 C-14.05693322 34.52846661 -16.62984547 34.23242445 -20 34 C-22.4375 32.5 -22.4375 32.5 -24 31 C-25.98 31.99 -25.98 31.99 -28 33 C-26.88625 33.433125 -25.7725 33.86625 -24.625 34.3125 C-21 36 -21 36 -19 39 C-22.17523915 41.40548421 -23.5741803 42.02936688 -27.625 41.75 C-31 41 -31 41 -34 40 C-34.99 41.65 -35.98 43.3 -37 45 C-35.01432292 44.93489583 -33.02864583 44.86979167 -31.04296875 44.8046875 C-29 45 -29 45 -26 47 C-27.00389575 49.73789749 -27.6953934 50.82231282 -30.25 52.3125 C-34.16580064 53.29145016 -37.39599361 52.8020032 -41 51 C-41.66 52.98 -42.32 54.96 -43 57 C-42.01 56.505 -42.01 56.505 -41 56 C-34.46666667 55.76666667 -34.46666667 55.76666667 -32 57 C-32.5625 59.3125 -32.5625 59.3125 -34 62 C-37.98697616 64.14115387 -40.45234548 65 -45 65 C-45 66.32 -45 67.64 -45 69 C-44.46375 68.649375 -43.9275 68.29875 -43.375 67.9375 C-40.26725237 66.71075751 -38.20568297 67.27143569 -35 68 C-36.17779296 71.35217997 -37.08158673 73.88666625 -40 76 C-42.30988315 76.74386068 -44.64315944 77.42190703 -47 78 C-47 79.65 -47 81.3 -47 83 C-46.60167969 82.51917969 -46.20335937 82.03835937 -45.79296875 81.54296875 C-43.56549753 79.62608175 -42.21165331 79.52258357 -39.3125 79.3125 C-38.50425781 79.24675781 -37.69601563 79.18101563 -36.86328125 79.11328125 C-36.24839844 79.07589844 -35.63351563 79.03851563 -35 79 C-35.50295053 83.40081711 -36.77209887 85.9419884 -40 89 C-43.75 89.8125 -43.75 89.8125 -47 90 C-46.67 91.32 -46.34 92.64 -46 94 C-45.29875 93.34 -44.5975 92.68 -43.875 92 C-40.56539771 89.69766797 -38.93774177 89.63369844 -35 90 C-35.44994534 94.83691236 -36.48895275 97.58648184 -40 101 C-42.75 101.8125 -42.75 101.8125 -45 102 C-44.34 103.65 -43.68 105.3 -43 107 C-42.113125 106.195625 -41.22625 105.39125 -40.3125 104.5625 C-37.61712968 102.2960841 -35.57936522 101.31582634 -32 101 C-32.03408072 108.82152466 -32.03408072 108.82152466 -34.40234375 111.7109375 C-36.0625 113.0625 -36.0625 113.0625 -39 115 C-38.34 115.99 -37.68 116.98 -37 118 C-36.3503125 116.824375 -36.3503125 116.824375 -35.6875 115.625 C-34 113 -34 113 -31 111 C-29.68 111 -28.36 111 -27 111 C-26.2769556 117.86892178 -26.2769556 117.86892178 -28.3359375 121.08984375 C-29.83010422 122.80497879 -31.35318077 124.43160073 -33 126 C-31.515 127.98 -31.515 127.98 -30 130 C-29.566875 128.906875 -29.13375 127.81375 -28.6875 126.6875 C-27.49957756 123.93241228 -26.51105302 121.77866255 -24 120 C-23.01 120 -22.02 120 -21 120 C-19.990811 124.93625056 -19.38867258 127.91538684 -21.9375 132.4375 C-22.618125 133.283125 -23.29875 134.12875 -24 135 C-24 135.66 -24 136.32 -24 137 C-23.01 137.66 -22.02 138.32 -21 139 C-20.731875 137.741875 -20.46375 136.48375 -20.1875 135.1875 C-19.40111537 132.03638428 -18.8196469 129.8797646 -16 128 C-15.34 128 -14.68 128 -14 128 C-11.52176335 131.71735498 -11.4102833 135.68395749 -12 140 C-13.5 143 -13.5 143 -15 145 C-13.35 145.66 -11.7 146.32 -10 147 C-10.33 146.34 -10.66 145.68 -11 145 C-10.984375 142.90625 -10.984375 142.90625 -10.75 140.5 C-10.68296875 139.7059375 -10.6159375 138.911875 -10.546875 138.09375 C-10 136 -10 136 -7 134 C-4.09605333 136.34189248 -3.07454912 137.71245339 -2.125 141.375 C-1.99579705 145.12188566 -2.57434336 147.56165164 -4 151 C-2.35 151.33 -0.7 151.66 1 152 C0.98839844 151.30132812 0.97679687 150.60265625 0.96484375 149.8828125 C0.95582031 148.97273437 0.94679687 148.06265625 0.9375 147.125 C0.92589844 146.22007812 0.91429687 145.31515625 0.90234375 144.3828125 C1 142 1 142 2 140 C4.89401051 141.29731506 7.16400267 142.37714667 9 145 C10.58485273 151.83029453 10.58485273 151.83029453 9 155 C9.9178125 155.17015625 10.835625 155.3403125 11.78125 155.515625 C23.03604675 157.73821091 23.03604675 157.73821091 27.5625 160.25 C30.71914859 162.18430874 30.71914859 162.18430874 33.4375 162 C36.52718218 160.79427037 39.50359435 159.37974027 42.51171875 157.984375 C45.94765088 156.62510515 49.39602525 155.99479213 53.03125 155.39453125 C54.99447505 155.19031918 54.99447505 155.19031918 56 154 C55.938125 152.948125 55.87625 151.89625 55.8125 150.8125 C56.03394208 146.30984429 57.14420945 144.42694866 60 141 C60.99 140.67 61.98 140.34 63 140 C65.4437201 143.66558014 65.15711416 145.67936058 65 150 C65 150.66 65 151.32 65 152 C66.65 151.67 68.3 151.34 70 151 C69.67 150.484375 69.34 149.96875 69 149.4375 C67.61500277 146.06156926 67.62491219 143.62584884 68 140 C70 136.5625 70 136.5625 72 134 C75 135 75 135 76.1875 137.1875 C77.07334979 140.25390311 77.14770318 142.82438155 77 146 C77.66 145.67 78.32 145.34 79 145 C78.82082031 144.27554688 78.64164063 143.55109375 78.45703125 142.8046875 C76.69811321 134.80960549 76.69811321 134.80960549 78.375 130.3125 C78.91125 129.549375 79.4475 128.78625 80 128 C82.67576692 129.00617682 83.7785108 129.54214546 85.046875 132.1640625 C85.27890625 132.97617188 85.5109375 133.78828125 85.75 134.625 C85.99234375 135.44226563 86.2346875 136.25953125 86.484375 137.1015625 C86.65453125 137.72804687 86.8246875 138.35453125 87 139 C87.99 138.01 88.98 137.02 90 136 C89.34 135.175 88.68 134.35 88 133.5 C85.38400004 129.61759723 85.61747913 126.59025039 86 122 C86.33 121.34 86.66 120.68 87 120 C89.92823675 120.65071928 91.58437978 121.34934854 93.22265625 123.9140625 C94.21209415 125.92130928 95.14005307 127.9342057 96 130 C96.99 128.68 97.98 127.36 99 126 C98.21625 125.278125 97.4325 124.55625 96.625 123.8125 C94.10351617 121.11091018 92.88512247 119.54048988 92 116 C92.375 113.1875 92.375 113.1875 93 111 C97.30614589 111.47846065 99.24880549 112.65926381 102 116 C102.33 116.99 102.66 117.98 103 119 C103.99 117.02 103.99 117.02 105 115 C104.21625 114.5875 103.4325 114.175 102.625 113.75 C99.82140534 111.8809369 98.96840053 111.16931083 98 108 C97.9222654 105.66796188 97.91032272 103.33160941 98 101 C102.43090471 102.20842856 104.98112756 103.51668565 108 107 C108.99 105.02 108.99 105.02 110 103 C108.6078125 102.13375 108.6078125 102.13375 107.1875 101.25 C104.35357338 99.24958121 102.638939 98.00472151 101 95 C100.8125 92.25 100.8125 92.25 101 90 C106.29441695 89.49576981 108.81413519 90.81076967 113 94 C113 92.68 113 91.36 113 90 C111.948125 89.95875 110.89625 89.9175 109.8125 89.875 C104.74173368 88.71121757 103.78396771 87.30249556 101 83 C101 81.68 101 80.36 101 79 C105.67461851 78.67386382 108.16674383 79.29417212 112 82 C112.33 80.35 112.66 78.7 113 77 C111.948125 76.938125 110.89625 76.87625 109.8125 76.8125 C105.33338575 75.85793467 103.79679384 74.5595558 101 71 C101 70.01 101 69.02 101 68 C105.05431692 66.84162374 107.21812119 67.16308743 111 69 C111 67.35 111 65.7 111 64 C110.484375 64.226875 109.96875 64.45375 109.4375 64.6875 C105.72938631 65.16289919 103.27919017 63.63959508 100 62 C99.34 61.34 98.68 60.68 98 60 C98.375 57.875 98.375 57.875 99 56 C102 56 105 56 108 56 C107.01 54.68 106.02 53.36 105 52 C103.948125 52.226875 102.89625 52.45375 101.8125 52.6875 C98 53 98 53 95.0625 51.8125 C94.381875 51.214375 93.70125 50.61625 93 50 C93 48.68 93 47.36 93 46 C95.95664519 44.5216774 98.74229737 44.93967217 102 45 C101.01 43.35 100.02 41.7 99 40 C98.319375 40.350625 97.63875 40.70125 96.9375 41.0625 C93.1929519 42.25756854 90.78194028 41.99900309 87 41 C85.5625 38.9375 85.5625 38.9375 85 37 C87.93828597 34.49701566 90.17902761 33.53069061 94 33 C92.30287793 31.69140351 92.30287793 31.69140351 90 31 C88.31791365 31.97383946 86.65261839 32.97695052 85 34 C79.81355932 34.40677966 79.81355932 34.40677966 77 33 C77.37881078 30.25362183 77.77832287 29.19950942 79.875 27.3125 C82 26 82 26 85 25 C84.01 24.01 84.01 24.01 83 23 C80.06546739 23.36681658 79.13562754 23.86437246 77 26 C74.8359375 26.1953125 74.8359375 26.1953125 72.375 26.125 C71.55773437 26.10695313 70.74046875 26.08890625 69.8984375 26.0703125 C69.27195313 26.04710938 68.64546875 26.02390625 68 26 C68.6875 23.625 68.6875 23.625 70 21 C72.625 19.6875 72.625 19.6875 75 19 C75 18.34 75 17.68 75 17 C73.02 16.34 71.04 15.68 69 15 C68.731875 15.61875 68.46375 16.2375 68.1875 16.875 C67 19 67 19 64 21 C61.3125 21.125 61.3125 21.125 59 21 C59.1875 18.1875 59.1875 18.1875 60 15 C62.5625 13.125 62.5625 13.125 65 12 C64.484375 10.948125 63.96875 9.89625 63.4375 8.8125 C62.00311817 5.51476233 61.83547893 3.4935632 63 0 C66.18068156 0.94560803 67.72068737 1.63090831 69.75 4.3125 C70.96017282 6.91437156 71.45619729 9.20330036 72 12 C72.99 12.495 72.99 12.495 74 13 C74.33 10.69 74.66 8.38 75 6 C76.32 5.67 77.64 5.34 79 5 C82.55389057 9.5534223 83.33753875 12.26184124 83 18 C83.33 18.33 83.66 18.66 84 19 C84.99 16.36 85.98 13.72 87 11 C91 12 91 12 92.75 14.125 C94.69300329 18.59390757 94.52702528 22.41892416 93 27 C93.99 27.99 93.99 27.99 95 29 C95.4125 27.88625 95.825 26.7725 96.25 25.625 C97.35546516 23.00679305 97.74880787 22.16506911 100.1875 20.5625 C100.785625 20.376875 101.38375 20.19125 102 20 C104.25287781 24.15915903 105.42981581 26.6359837 104.25 31.3125 C103 35 103 35 102 37 C102.66 37.99 103.32 38.98 104 40 C104.40992188 39.4946875 104.81984375 38.989375 105.2421875 38.46875 C105.78101563 37.8190625 106.31984375 37.169375 106.875 36.5 C107.40867188 35.8503125 107.94234375 35.200625 108.4921875 34.53125 C108.98976562 34.0259375 109.48734375 33.520625 110 33 C110.66 33 111.32 33 112 33 C113.7158036 36.43160721 113.40476178 40.23963252 113 44 C112.02763513 45.6829392 111.03435556 47.35443434 110 49 C110.69140351 51.30287793 110.69140351 51.30287793 112 53 C113.11375 51.7625 113.11375 51.7625 114.25 50.5 C117 48 117 48 121 48 C121.29586132 53.02964252 121.0496128 55.9338496 118 60 C117.46375 60.515625 116.9275 61.03125 116.375 61.5625 C114.71515152 63.29779613 114.40263517 64.66471604 114 67 C114.66 67 115.32 67 116 67 C116.33 66.01 116.66 65.02 117 64 C120.22791555 61.8480563 121.28400809 61.79913557 125 62 C125.50338797 67.28557366 124.34676996 69.90950339 121 74 C118.75 75.375 118.75 75.375 117 76 C117 77.32 117 78.64 117 80 C117.70125 79.34 118.4025 78.68 119.125 78 C122.43460229 75.69766797 124.06225823 75.63369844 128 76 C127.58675744 81.2688427 126.77055562 84.22944438 123 88 C120.31591712 89.70805274 119.23830467 90 116 90 C116 90.99 116 91.98 116 93 C116.53625 92.525625 117.0725 92.05125 117.625 91.5625 C120.46136052 89.69647334 122.63912786 89.29224975 126 89 C126.66 89.33 127.32 89.66 128 90 C127.9262004 93.0995833 127.60238013 95.27614543 125.5859375 97.69921875 C121.91672224 101.03707316 119.10682548 102.75088656 114 103 C113.67 103.99 113.34 104.98 113 106 C114.0209375 105.4740625 114.0209375 105.4740625 115.0625 104.9375 C118.7087789 103.77379397 121.28489978 104.27154898 125 105 C123.79645581 109.41299538 122.56751319 112.08112557 119 115 C118.01 115.33 117.02 115.66 116 116 C117.32 116.66 118.64 117.32 120 118 C117.8821307 122.01280499 115.92564889 124.66131555 112 127 C109.35904956 127.4559028 106.78514903 127.68568015 104.109375 127.82421875 C102.01456581 127.77012011 102.01456581 127.77012011 101 129 C101.62648437 129.13277344 102.25296875 129.26554688 102.8984375 129.40234375 C103.71570313 129.57894531 104.53296875 129.75554687 105.375 129.9375 C106.18710938 130.11152344 106.99921875 130.28554687 107.8359375 130.46484375 C110 131 110 131 112 132 C111.0195412 134.58484592 110.06077857 135.94843031 107.9375 137.75 C103.02791589 139.83918473 98.02950475 139.67650158 93 138 C92.67 138.66 92.34 139.32 92 140 C92.928125 140.28875 93.85625 140.5775 94.8125 140.875 C98 142 98 142 101 144 C100.66411682 146.51912388 100.42645046 147.67196119 98.375 149.25 C91.93440252 151.28387289 86.93984161 149.50098594 81 147 C81 147.66 81 148.32 81 149 C81.7425 149.061875 82.485 149.12375 83.25 149.1875 C86.8185739 150.24185138 87.92245228 151.99909773 90 155 C88.38021124 156.93860432 87.45827059 157.9031085 84.94921875 158.43359375 C79.32445977 158.44330836 76.65496753 157.35590682 72 154 C69.68973726 154.11443256 69.68973726 154.11443256 68 155 C68.969375 155.721875 69.93875 156.44375 70.9375 157.1875 C73.29913506 159.13237593 73.93412331 159.7882535 74.875 162.8125 C74.91625 163.534375 74.9575 164.25625 75 165 C71.50967915 166.74516042 67.71223776 165.84631327 64 165 C61.18007283 163.17879704 59.49654522 161.99309044 58 159 C50.38898472 159.97874308 43.83102288 161.4464881 37 165 C37.99 166.175625 37.99 166.175625 39 167.375 C41 170 41 170 41 172 C37.51460083 171.35455571 34.97180943 169.89865603 32 168 C31.401875 168.66 30.80375 169.32 30.1875 170 C28 172 28 172 25 172 C25.57194165 168.68273845 26.57000464 167.27364177 29 165 C21.74818885 161.73543897 14.8859085 159.16892891 7 158 C6.79375 158.763125 6.5875 159.52625 6.375 160.3125 C4.48167634 164.01308716 2.93328688 164.71274247 -1 166 C-4.0589677 165.94510825 -6.99407352 165.55442644 -10 165 C-8.5682479 159.98886765 -6.01554307 158.05530451 -2 155 C-4.24875747 154.13149826 -4.24875747 154.13149826 -7 154 C-7.7425 154.639375 -8.485 155.27875 -9.25 155.9375 C-12.69008282 158.51756212 -14.74077067 158.40715408 -18.9140625 158.3359375 C-21 158 -21 158 -24 156 C-22.61198929 152.64564078 -21.11371 150.88709697 -18 149 C-17.01 149 -16.02 149 -15 149 C-15 148.34 -15 147.68 -15 147 C-17.16735253 147.46443268 -18.8899717 147.93550065 -20.8125 149.0625 C-24.05836603 150.45358544 -26.50175657 150.36188725 -30 150 C-33.4375 148 -33.4375 148 -36 146 C-33.15063897 142.99234114 -30.76488042 140.72154788 -27 139 C-28.30324219 139.08701172 -28.30324219 139.08701172 -29.6328125 139.17578125 C-40.21745837 139.59016895 -40.21745837 139.59016895 -43.8125 136.5 C-44.534375 135.675 -45.25625 134.85 -46 134 C-45.67 133.01 -45.34 132.02 -45 131 C-42.93359375 130.26953125 -42.93359375 130.26953125 -40.4375 129.8125 C-39.61121094 129.65394531 -38.78492187 129.49539062 -37.93359375 129.33203125 C-37.29550781 129.22246094 -36.65742187 129.11289063 -36 129 C-36 128.34 -36 127.68 -36 127 C-36.65226562 127.04640625 -37.30453125 127.0928125 -37.9765625 127.140625 C-42.48126111 127.32665975 -45.37253402 127.30252824 -49.5 125.3125 C-52.07068171 122.93461942 -53.0717492 121.34170288 -54 118 C-52.02 117.01 -52.02 117.01 -50 116 C-51.11375 115.4225 -52.2275 114.845 -53.375 114.25 C-56.32697532 112.56230502 -58.01499324 111.39280107 -59 108 C-59 107.01 -59 106.02 -59 105 C-54.58937864 103.9742741 -52.07369424 103.96315288 -48 106 C-48 104.68 -48 103.36 -48 102 C-48.86625 102.0825 -49.7325 102.165 -50.625 102.25 C-54.84417957 101.93746818 -56.75234357 100.65717344 -60 98 C-61.92503419 95.4053887 -62.06492311 94.4761028 -61.625 91.25 C-61.41875 90.5075 -61.2125 89.765 -61 89 C-54.375 89.75 -54.375 89.75 -51 92 C-50.505 91.01 -50.505 91.01 -50 90 C-50.86625 89.979375 -51.7325 89.95875 -52.625 89.9375 C-57.27894281 88.64473811 -59.58203667 86.13068736 -62 82 C-62.375 78.5625 -62.375 78.5625 -62 76 C-57.44262737 76.43820891 -54.42346555 76.85041169 -51 80 C-50.67 78.68 -50.34 77.36 -50 76 C-50.7425 75.773125 -51.485 75.54625 -52.25 75.3125 C-55.66484607 73.6826871 -57.0539825 72.2433625 -59 69 C-59.25 65.1875 -59.25 65.1875 -59 62 C-53.46153846 62.61538462 -53.46153846 62.61538462 -51.125 64.5625 C-50.75375 65.036875 -50.3825 65.51125 -50 66 C-49.67 65.01 -49.34 64.02 -49 63 C-49.804375 62.195625 -50.60875 61.39125 -51.4375 60.5625 C-55 57 -55 57 -55.09765625 54.93359375 C-55.08605469 54.10988281 -55.07445312 53.28617188 -55.0625 52.4375 C-55.05347656 51.61121094 -55.04445313 50.78492188 -55.03515625 49.93359375 C-55.02355469 49.29550781 -55.01195312 48.65742187 -55 48 C-50.59885603 48.50298788 -48.28804981 50.08772731 -45 53 C-44.21717352 51.20800528 -44.21717352 51.20800528 -44 49 C-44.45375 48.401875 -44.9075 47.80375 -45.375 47.1875 C-47.62643752 44.15671872 -47.80342349 41.73495368 -48 38 C-47.0625 35.0625 -47.0625 35.0625 -46 33 C-42.2047869 34.49097658 -40.38957269 36.75700849 -38 40 C-37.29805007 38.19747131 -37.29805007 38.19747131 -37 36 C-37.309375 35.401875 -37.61875 34.80375 -37.9375 34.1875 C-39.48778819 30.9957302 -39.30733313 28.50359767 -39 25 C-37.5 22.0625 -37.5 22.0625 -36 20 C-32.70851757 21.13499394 -32.0040131 21.99283376 -30.25 25.125 C-29.8375 26.07375 -29.425 27.0225 -29 28 C-27.77867068 24.91376228 -27.77867068 24.91376228 -28.125 21.125 C-28.16736866 17.29063666 -27.5493005 15.00453274 -25 12 C-23.68 11.67 -22.36 11.34 -21 11 C-20.34 13.97 -19.68 16.94 -19 20 C-17.46444046 18.46444046 -17.81104644 16.8820586 -17.6875 14.75 C-17.273365 10.42228926 -16.13431201 8.13431201 -13 5 C-11.68 5.33 -10.36 5.66 -9 6 C-8.505 9.465 -8.505 9.465 -8 13 C-7.34 12.67 -6.68 12.34 -6 12 C-5.54212876 10.00498961 -5.08541491 8.00968633 -4.640625 6.01171875 C-3.76324299 3.25652525 -2.22725508 1.78180406 0 0 Z " fill="#F6C84E" transform="translate(62,1)"/>
<path d="M0 0 C6.7991998 6.2302291 6.7991998 6.2302291 7.26742554 10.35697937 C7.27504913 11.2854921 7.28267273 12.21400482 7.29052734 13.1706543 C7.30328705 14.22572678 7.31604675 15.28079926 7.32919312 16.36784363 C7.33141876 17.50844742 7.33364441 18.64905121 7.3359375 19.82421875 C7.3459227 21.58727104 7.3459227 21.58727104 7.35610962 23.38594055 C7.36624462 25.87666253 7.37092638 28.36741172 7.37060547 30.8581543 C7.37496299 34.6552464 7.41123263 38.45116171 7.44921875 42.24804688 C7.45508993 44.66926687 7.4590573 47.09049237 7.4609375 49.51171875 C7.47530853 50.64220139 7.48967957 51.77268402 7.50448608 52.93742371 C7.42928356 66.02469393 0.60243632 74.23914798 -8.0625 83.5 C-16.14362684 91.37427206 -27.69402691 99.68830094 -39.05078125 101.2890625 C-51.61001116 101.05254216 -64.92531426 90.91479847 -73.56884766 82.49267578 C-77.525138 78.3663095 -80.92366442 73.81426543 -84 69 C-84.52327881 68.20762939 -85.04655762 67.41525879 -85.58569336 66.59887695 C-87.67191213 61.29023706 -87.44798995 56.24930716 -87.43359375 50.59375 C-87.4388356 49.39568726 -87.44407745 48.19762451 -87.44947815 46.96325684 C-87.45589002 44.43498508 -87.45457223 41.90668347 -87.44604492 39.37841797 C-87.43752965 35.513457 -87.46631968 31.64997155 -87.49804688 27.78515625 C-87.49965889 25.32552128 -87.49908135 22.86588369 -87.49609375 20.40625 C-87.50732773 19.25298218 -87.51856171 18.09971436 -87.53013611 16.91149902 C-87.47574966 10.64248992 -87.26922075 6.73487329 -83 2 C-59.30856886 -17.65716407 -24.76532283 -16.19851201 0 0 Z M-40 -2 C-40 13.18 -40 28.36 -40 44 C-27.79 44 -15.58 44 -3 44 C-2.79375 38.864375 -2.5875 33.72875 -2.375 28.4375 C-2.28395996 26.83060303 -2.19291992 25.22370605 -2.09912109 23.56811523 C-1.75969832 16.02571688 -1.75969832 16.02571688 -5.07495117 9.50952148 C-7.64218404 7.68344925 -10.13510796 6.30065441 -13 5 C-14.01191406 4.43667969 -15.02382812 3.87335937 -16.06640625 3.29296875 C-24.3574304 -0.37895587 -30.88377742 -2 -40 -2 Z M-77 45 C-76.67 46.32 -76.34 47.64 -76 49 C-75.01 47.68 -74.02 46.36 -73 45 C-74.32 45 -75.64 45 -77 45 Z M-69.125 49.3125 C-69.97320312 50.11300781 -70.82140625 50.91351563 -71.6953125 51.73828125 C-72.83613281 52.85783203 -72.83613281 52.85783203 -74 54 C-74.61617187 54.50917969 -75.23234375 55.01835938 -75.8671875 55.54296875 C-76.24101563 56.02378906 -76.61484375 56.50460938 -77 57 C-76.77242269 59.16299211 -76.77242269 59.16299211 -76 61 C-71.80838948 57.44624326 -67.66663011 53.84210234 -63.5625 50.1875 C-62.69753906 49.41792969 -61.83257812 48.64835937 -60.94140625 47.85546875 C-59.98041016 46.93701172 -59.98041016 46.93701172 -59 46 C-59 45.67 -59 45.34 -59 45 C-63.87815223 44.39678763 -65.66712411 45.99738045 -69.125 49.3125 Z M-58.375 51.625 C-59.65231056 52.86856049 -60.93094962 54.11075793 -62.2109375 55.3515625 C-62.83323242 55.9590332 -63.45552734 56.56650391 -64.09667969 57.19238281 C-66.96555367 59.91700351 -69.97057553 62.45590968 -73 65 C-72.67 65.99 -72.34 66.98 -72 68 C-68.60655558 66.51151188 -66.21770033 64.5673138 -63.5 62.0625 C-62.63632813 61.26972656 -61.77265625 60.47695312 -60.8828125 59.66015625 C-59.93148437 58.78230469 -58.98015625 57.90445313 -58 57 C-56.8941922 55.99763447 -55.78739188 54.99636299 -54.6796875 53.99609375 C-53.57798276 52.99755275 -52.4764179 51.99885739 -51.375 51 C-50.84197266 50.51926025 -50.30894531 50.03852051 -49.75976562 49.54321289 C-48.48744723 48.38270303 -47.24092612 47.19401826 -46 46 C-46 45.67 -46 45.34 -46 45 C-51.77613489 43.82706839 -54.61776735 47.875312 -58.375 51.625 Z M-45.02734375 51.74609375 C-45.96211548 52.62563721 -45.96211548 52.62563721 -46.91577148 53.52294922 C-47.58294189 54.15475098 -48.2501123 54.78655273 -48.9375 55.4375 C-50.30142452 56.72075268 -51.66600993 58.00330327 -53.03125 59.28515625 C-53.70414063 59.91695801 -54.37703125 60.54875977 -55.0703125 61.19970703 C-58.99309043 64.85944443 -62.99137427 68.43468111 -67 72 C-66.67 72.99 -66.34 73.98 -66 75 C-63.03795237 73.65925383 -60.88529116 72.16093147 -58.5390625 69.91796875 C-57.90226562 69.31533203 -57.26546875 68.71269531 -56.609375 68.09179688 C-55.95453125 67.46337891 -55.2996875 66.83496094 -54.625 66.1875 C-53.32700314 64.95026594 -52.02754345 63.71456459 -50.7265625 62.48046875 C-50.10249512 61.88693604 -49.47842773 61.29340332 -48.83544922 60.68188477 C-47.12496348 59.1145083 -45.36516762 57.66588749 -43.546875 56.2265625 C-40.71848905 54.24762319 -40.71848905 54.24762319 -40.625 51.1875 C-40.74875 50.465625 -40.8725 49.74375 -41 49 C-42.77366974 49 -43.79096441 50.57665158 -45.02734375 51.74609375 Z M-43.34765625 62.28515625 C-43.91355469 62.87167969 -44.47945312 63.45820312 -45.0625 64.0625 C-47.67255492 66.72088927 -50.35196194 69.20895165 -53.1875 71.625 C-56.16783193 74.18866417 -58.67694366 76.80579753 -61 80 C-59.515 80.99 -59.515 80.99 -58 82 C-57.35933594 81.34773438 -56.71867187 80.69546875 -56.05859375 80.0234375 C-48.14854179 72.03086637 -48.14854179 72.03086637 -43.875 68.6875 C-40.74460387 66.31747195 -40.74460387 66.31747195 -40.5625 63.125 C-40.706875 62.42375 -40.85125 61.7225 -41 61 C-42.18975254 60.88497893 -42.18975254 60.88497893 -43.34765625 62.28515625 Z M-47.5625 78.375 C-48.08263672 78.88289063 -48.60277344 79.39078125 -49.13867188 79.9140625 C-50.46635259 81.23652298 -51.73769531 82.61500012 -53 84 C-53 84.66 -53 85.32 -53 86 C-52.01 86.33 -51.02 86.66 -50 87 C-48.48509654 85.62035577 -46.98849387 84.22059683 -45.5 82.8125 C-44.6646875 82.03519531 -43.829375 81.25789063 -42.96875 80.45703125 C-40.75907457 78.15600909 -40.75907457 78.15600909 -40.71875 75.19921875 C-40.8115625 74.47347656 -40.904375 73.74773437 -41 73 C-43.35871996 73 -45.88848809 76.70307799 -47.5625 78.375 Z M-45 88 C-45 88.66 -45 89.32 -45 90 C-43.68 90.33 -42.36 90.66 -41 91 C-41 89.35 -41 87.7 -41 86 C-42.46225016 85.90754997 -42.46225016 85.90754997 -45 88 Z " fill="#601C2A" transform="translate(135,49)"/>
<path d="M0 0 C0.66 0 1.32 0 2 0 C4.64 5.94 7.28 11.88 10 18 C12.82042136 10.55340068 12.82042136 10.55340068 14 3 C13.505 2.01 13.505 2.01 13 1 C21.58 1 30.16 1 39 1 C38.01 1.99 37.02 2.98 36 4 C35.53601741 6.95136518 35.53601741 6.95136518 35.6015625 10.3125 C35.59769531 11.55257812 35.59382813 12.79265625 35.58984375 14.0703125 C35.60144531 15.36710937 35.61304688 16.66390625 35.625 18 C35.61339844 19.29679687 35.60179687 20.59359375 35.58984375 21.9296875 C35.59564453 23.78980469 35.59564453 23.78980469 35.6015625 25.6875 C35.60494629 26.82574219 35.60833008 27.96398437 35.61181641 29.13671875 C35.75446764 32.36016879 35.75446764 32.36016879 39 35 C33.72 35 28.44 35 23 35 C24.32 34.34 25.64 33.68 27 33 C26.67 23.43 26.34 13.86 26 4 C22.25308553 2.60229416 22.25308553 2.60229416 20 4 C19.11340978 6.36241321 18.34090619 8.68497503 17.6171875 11.09765625 C17.39805695 11.80651474 17.17892639 12.51537323 16.95315552 13.24571228 C16.25320947 15.51582657 15.5640126 17.78904611 14.875 20.0625 C14.40304677 21.59982538 13.93039936 23.13693782 13.45703125 24.67382812 C12.29661059 28.4467929 11.14582142 32.22257716 10 36 C7.72719081 33.92176281 6.39579961 32.09879113 5.17578125 29.27734375 C4.86962891 28.57416016 4.56347656 27.87097656 4.24804688 27.14648438 C3.93931641 26.41751953 3.63058594 25.68855469 3.3125 24.9375 C2.99216797 24.20466797 2.67183594 23.47183594 2.34179688 22.71679688 C0 17.27923441 0 17.27923441 0 15 C-0.66 15 -1.32 15 -2 15 C-2.4125 16.2375 -2.825 17.475 -3.25 18.75 C-5.16666667 24.5 -7.08333333 30.25 -9 36 C-9.66 36 -10.32 36 -11 36 C-11.34780518 35.04633545 -11.69561035 34.0926709 -12.05395508 33.11010742 C-13.34829834 29.56792785 -14.65357026 26.02985917 -15.9621582 22.49291992 C-16.52666674 20.96244213 -17.08821767 19.43087003 -17.64672852 17.89819336 C-18.45071083 15.69349518 -19.26529769 13.49296996 -20.08203125 11.29296875 C-20.32903275 10.60849167 -20.57603424 9.92401459 -20.83052063 9.21879578 C-22.18193274 5.61290381 -23.20980792 3.79019208 -26 1 C-21.05 1 -16.1 1 -11 1 C-11.33 2.98 -11.66 4.96 -12 7 C-11.2847933 10.01546829 -11.2847933 10.01546829 -10.0625 12.875 C-9.68222656 13.84179688 -9.30195313 14.80859375 -8.91015625 15.8046875 C-8.60980469 16.52914062 -8.30945313 17.25359375 -8 18 C-7.040062 15.93824636 -6.08211576 13.87556531 -5.125 11.8125 C-4.59132812 10.66394531 -4.05765625 9.51539063 -3.5078125 8.33203125 C-2.26113087 5.57705863 -1.09338408 2.81838323 0 0 Z " fill="#601B2A" transform="translate(237,54)"/>
<path d="M0 0 C34.90205657 -0.20638953 34.90205657 -0.20638953 48 1 C47.34 1.99 46.68 2.98 46 4 C46.3609375 4.62648438 46.721875 5.25296875 47.09375 5.8984375 C47.5578125 6.71570312 48.021875 7.53296875 48.5 8.375 C48.9640625 9.18710937 49.428125 9.99921875 49.90625 10.8359375 C51 13 51 13 51 15 C51.66 15 52.32 15 53 15 C53.268125 14.278125 53.53625 13.55625 53.8125 12.8125 C55 10 55 10 56.625 7.3125 C58.17035846 5.16188894 58.17035846 5.16188894 58 3 C57.34 2.34 56.68 1.68 56 1 C60.29 1 64.58 1 69 1 C68.01 1.66 67.02 2.32 66 3 C60.17552102 8.33522275 55.55677099 14.89747691 54.48046875 22.828125 C54.44119557 26.29844632 54.46618129 29.57033289 55 33 C55.66 33.66 56.32 34.32 57 35 C52.05 35 47.1 35 42 35 C42.99 34.01 43.98 33.02 45 32 C46.69788993 25.33904719 45.27130257 19.76325899 41.96972656 13.94433594 C37.92773711 7.13697653 37.92773711 7.13697653 32 2 C32 4.31 32 6.62 32 9 C31.34 9 30.68 9 30 9 C29.7525 8.0409375 29.7525 8.0409375 29.5 7.0625 C28.22456564 4.83011518 28.22456564 4.83011518 26.10351562 4.57983398 C25.37841797 4.51094971 24.65332031 4.44206543 23.90625 4.37109375 C22.6171875 4.24863281 21.328125 4.12617187 20 4 C20.06877778 8.09398801 20.15669235 12.1870691 20.26245117 16.28027344 C20.29572873 17.67306089 20.32375197 19.06598411 20.34643555 20.45898438 C20.37992689 22.45991378 20.43381305 24.46046921 20.48828125 26.4609375 C20.51446533 27.66540527 20.54064941 28.86987305 20.56762695 30.11083984 C20.71031006 31.0642627 20.85299316 32.01768555 21 33 C21.99 33.66 22.98 34.32 24 35 C18.72 35 13.44 35 8 35 C8.99 34.01 9.98 33.02 11 32 C11.50718056 29.0011387 11.50718056 29.0011387 11.51171875 25.58203125 C11.54716797 24.32841797 11.58261719 23.07480469 11.61914062 21.78320312 C11.64169922 20.47287109 11.66425781 19.16253906 11.6875 17.8125 C11.72067666 16.47717987 11.75516666 15.14189168 11.79101562 13.80664062 C11.87362057 10.53784496 11.94273229 7.26932188 12 4 C8.7 4.33 5.4 4.66 2 5 C2 6.32 2 7.64 2 9 C1.34 9 0.68 9 0 9 C0 6.03 0 3.06 0 0 Z " fill="#601B2A" transform="translate(456,54)"/>
<path d="M0 0 C3.44401787 1.62084653 5.60671518 3.42536245 8.25 6.1875 C11.78655652 9.81159505 15.41978854 13.2094495 19.2734375 16.4921875 C20.92296942 17.93272895 22.47079574 19.43326925 24 21 C24.08089542 18.22858283 24.14044062 15.45952181 24.1875 12.6875 C24.21263672 11.90181641 24.23777344 11.11613281 24.26367188 10.30664062 C24.27333984 9.54931641 24.28300781 8.79199219 24.29296875 8.01171875 C24.3086792 7.31522217 24.32438965 6.61872559 24.34057617 5.90112305 C24.10292687 3.53159005 24.10292687 3.53159005 21 1 C25.95 1 30.9 1 36 1 C35.34 1.66 34.68 2.32 34 3 C33.75484303 5.50375468 33.62666342 7.90549479 33.5859375 10.4140625 C33.56657135 11.14370209 33.5472052 11.87334167 33.5272522 12.62509155 C33.46741578 14.95827502 33.42105577 17.29150773 33.375 19.625 C33.33682386 21.20575082 33.29777235 22.78648076 33.2578125 24.3671875 C33.16171122 28.2446223 33.07769588 32.12215449 33 36 C27.11759921 31.85220343 22.0187844 27.27349454 17 22.125 C16.32066406 21.43664062 15.64132812 20.74828125 14.94140625 20.0390625 C13.28953114 18.36392154 11.64256075 16.6842664 10 15 C9.94620774 17.95857409 9.90642907 20.91617721 9.875 23.875 C9.85824219 24.71675781 9.84148437 25.55851562 9.82421875 26.42578125 C9.81455078 27.63427734 9.81455078 27.63427734 9.8046875 28.8671875 C9.78897705 29.98262939 9.78897705 29.98262939 9.77294922 31.12060547 C9.8334403 33.24490235 9.8334403 33.24490235 12 35 C7.05 35 2.1 35 -3 35 C-2.01 34.34 -1.02 33.68 0 33 C0.26711404 30.44604513 0.34849029 28.13725626 0.29296875 25.5859375 C0.28660149 24.49147812 0.28660149 24.49147812 0.28010559 23.37490845 C0.26329353 21.04123241 0.22563868 18.7084156 0.1875 16.375 C0.17245634 14.79428329 0.15876738 13.21355307 0.14648438 11.6328125 C0.11338201 7.75487656 0.06158404 3.87758402 0 0 Z " fill="#601B2A" transform="translate(281,54)"/>
<path d="M0 0 C3.83307169 -0.11719175 7.66567608 -0.18758077 11.5 -0.25 C12.57765625 -0.28351562 13.6553125 -0.31703125 14.765625 -0.3515625 C21.69791124 -0.43610258 26.12096109 0.24640737 32 4 C36.09184974 8.51152663 37.24538242 13.03229962 37 19 C36.15537869 23.66410351 34.95702529 27.01778984 31.625 30.4375 C27.08342351 33.14081934 23.5645577 34.25202736 18.26171875 34.1953125 C16.66166992 34.18564453 16.66166992 34.18564453 15.02929688 34.17578125 C13.92650391 34.15902344 12.82371094 34.14226562 11.6875 34.125 C10.56537109 34.11597656 9.44324219 34.10695312 8.28710938 34.09765625 C5.52452091 34.07414486 2.76237068 34.04128155 0 34 C0.48678223 33.63519531 0.97356445 33.27039063 1.47509766 32.89453125 C3.6645876 30.1743196 3.38815307 28.14698707 3.3984375 24.6875 C3.40230469 23.44742188 3.40617187 22.20734375 3.41015625 20.9296875 C3.39855469 19.63289063 3.38695312 18.33609375 3.375 17 C3.38660156 15.70320313 3.39820313 14.40640625 3.41015625 13.0703125 C3.40628906 11.83023438 3.40242188 10.59015625 3.3984375 9.3125 C3.39505371 8.17425781 3.39166992 7.03601562 3.38818359 5.86328125 C3.24750509 2.9734951 3.24750509 2.9734951 1.47509766 1.10546875 C0.98831543 0.74066406 0.5015332 0.37585937 0 0 Z M12 3 C12 12.24 12 21.48 12 31 C20.26395961 31.74718669 20.26395961 31.74718669 23.9375 29.3125 C28.06220486 24.68783091 28.38835377 20.46074895 28.25390625 14.4375 C27.80710481 10.14820617 26.15181816 7.32902096 23.375 4.125 C20.08238899 2.35787048 20.08238899 2.35787048 12 3 Z " fill="#601B2A" transform="translate(319,55)"/>
<path d="M0 0 C1 1 1 1 1.09765625 3.06640625 C1.08605469 3.89011719 1.07445312 4.71382812 1.0625 5.5625 C1.05347656 6.38878906 1.04445313 7.21507812 1.03515625 8.06640625 C1.02355469 8.70449219 1.01195312 9.34257813 1 10 C0.566875 9.401875 0.13375 8.80375 -0.3125 8.1875 C-0.869375 7.465625 -1.42625 6.74375 -2 6 C-2.391875 5.443125 -2.78375 4.88625 -3.1875 4.3125 C-6.15662625 2.16244306 -9.43319306 1.89529921 -13 2 C-16.43717555 3.29848854 -17.69761172 4.57248554 -19.8125 7.5625 C-21.81724793 13.3657177 -21.85056758 18.66093916 -19.75 24.4375 C-17.94031667 27.08739344 -16.86739651 28.56630175 -14 30 C-9.91337664 30.36487709 -6.27314417 30.68865414 -3 28 C-1.33118065 24.57831151 -1.33118065 24.57831151 0 21 C0.66 20.01 1.32 19.02 2 18 C3.85431668 26.68157356 3.85431668 26.68157356 1.87109375 29.7421875 C-2.78718941 33.68830205 -6.8254055 34.322054 -12.78125 34.2109375 C-18.24139421 33.69183928 -23.23712238 32.34778387 -26.9375 28.125 C-30.4258996 22.83954606 -31.9548812 18.40124066 -31 12 C-29.24128716 6.7618877 -26.80557009 2.90569354 -22 0 C-14.3052027 -2.90369709 -7.65495896 -2.65580209 0 0 Z " fill="#601B2A" transform="translate(433,56)"/>
<path d="M0 0 C5.61 0 11.22 0 17 0 C16.01 0.495 16.01 0.495 15 1 C16.6229639 5.35249409 18.25150329 9.6960081 20 14 C23.28465896 11.20803989 25.01321958 7.76803183 27 4 C27 3.34 27 2.68 27 2 C26.34 1.34 25.68 0.68 25 0 C29.29 0 33.58 0 38 0 C34 3 34 3 32 3 C31.73445313 3.73347656 31.46890625 4.46695313 31.1953125 5.22265625 C30.01605813 7.96268845 28.60762568 10.02270528 26.875 12.4375 C23.05679268 18.61182062 23.01089432 24.92409012 24 32 C24.66 32.66 25.32 33.32 26 34 C21.05 34 16.1 34 11 34 C11.99 33.01 12.98 32.02 14 31 C15.5820462 24.13432516 14.611577 18.23328572 11.01855469 12.28051758 C7.76836046 7.3137734 4.75183011 3.80146409 0 0 Z " fill="#601B2A" transform="translate(353,55)"/>
<path d="M0 0 C1.32 0.33 2.64 0.66 4 1 C4.33 2.65 4.66 4.3 5 6 C7.475 6.495 7.475 6.495 10 7 C10 5.35 10 3.7 10 2 C11.32 2.33 12.64 2.66 14 3 C13.67 5.97 13.34 8.94 13 12 C14.32 12 15.64 12 17 12 C17.33 10.68 17.66 9.36 18 8 C18.99 8 19.98 8 21 8 C20.67 9.65 20.34 11.3 20 13 C19.34 13 18.68 13 18 13 C17.34 14.65 16.68 16.3 16 18 C14.82824219 17.91621094 13.65648437 17.83242188 12.44921875 17.74609375 C3.85719155 17.17445047 -4.4339982 16.77359005 -13 18 C-13.45375 17.195625 -13.9075 16.39125 -14.375 15.5625 C-15.74725665 12.91143428 -15.74725665 12.91143428 -18 12 C-17.67 10.68 -17.34 9.36 -17 8 C-15.02 8.495 -15.02 8.495 -13 9 C-13 9.99 -13 10.98 -13 12 C-12.01 11.67 -11.02 11.34 -10 11 C-10 8.36 -10 5.72 -10 3 C-8.68 3 -7.36 3 -6 3 C-6 4.32 -6 5.64 -6 7 C-4.68 7 -3.36 7 -2 7 C0.36980013 4.04622502 0.36980013 4.04622502 0 0 Z M5 10 C6 13 6 13 6 13 Z " fill="#601B2A" transform="translate(93,18)"/>
<path d="M0 0 C4.95 0 9.9 0 15 0 C14.67 0.66 14.34 1.32 14 2 C13.34 2 12.68 2 12 2 C12.09346313 6.23623542 12.19953913 10.47190851 12.31738281 14.70751953 C12.35569674 16.1488374 12.39054543 17.59025168 12.421875 19.03173828 C12.46747446 21.10223886 12.52547444 23.17207433 12.5859375 25.2421875 C12.6173584 26.4885498 12.6487793 27.73491211 12.68115234 29.01904297 C12.69682309 32.11541776 12.69682309 32.11541776 15 34 C10.05 34 5.1 34 0 34 C0.99 33.01 1.98 32.02 3 31 C3.46398259 28.04863482 3.46398259 28.04863482 3.3984375 24.6875 C3.40230469 23.44742188 3.40617187 22.20734375 3.41015625 20.9296875 C3.39855469 19.63289063 3.38695312 18.33609375 3.375 17 C3.38660156 15.70320313 3.39820313 14.40640625 3.41015625 13.0703125 C3.40628906 11.83023438 3.40242188 10.59015625 3.3984375 9.3125 C3.39505371 8.17425781 3.39166992 7.03601562 3.38818359 5.86328125 C3.24553236 2.63983121 3.24553236 2.63983121 0 0 Z " fill="#601B2A" transform="translate(439,55)"/>
<path d="M0 0 C6.6 0 13.2 0 20 0 C21.32 2.31 22.64 4.62 24 7 C26.77000825 3.67913229 26.77000825 3.67913229 29 0 C30.65 0 32.3 0 34 0 C33.57847656 0.70125 33.15695312 1.4025 32.72265625 2.125 C29.39398593 7.88947378 27.25203391 12.32110138 27 19 C25.35 19 23.7 19 22 19 C21.85304688 18.12988281 21.85304688 18.12988281 21.703125 17.2421875 C20.71664147 12.08866146 19.66005894 7.96506385 16 4 C14.02 4 12.04 4 10 4 C10 8.95 10 13.9 10 19 C8.68 19 7.36 19 6 19 C6 14.05 6 9.1 6 4 C4.02 4 2.04 4 0 4 C0 2.68 0 1.36 0 0 Z " fill="#601B2A" transform="translate(355,107)"/>
<path d="M0 0 C1.32 0 2.64 0 4 0 C5.703125 2.1875 5.703125 2.1875 7.25 5 C8.03117187 6.3921875 8.03117187 6.3921875 8.828125 7.8125 C9.21484375 8.534375 9.6015625 9.25625 10 10 C12.10186897 7.46326158 13.94588108 5.10147297 15.5 2.1875 C15.995 1.465625 16.49 0.74375 17 0 C18.32 0 19.64 0 21 0 C21 6.27 21 12.54 21 19 C19.68 19 18.36 19 17 19 C16.67 16.36 16.34 13.72 16 11 C14.02 13.97 14.02 13.97 12 17 C10.1875 16.8125 10.1875 16.8125 8 16 C6.25 13.4375 6.25 13.4375 5 11 C4.67 13.64 4.34 16.28 4 19 C2.68 19 1.36 19 0 19 C0 12.73 0 6.46 0 0 Z " fill="#601B2A" transform="translate(257,107)"/>
<path d="M0 0 C1.32 0 2.64 0 4 0 C5.703125 2.1875 5.703125 2.1875 7.25 5 C8.03117187 6.3921875 8.03117187 6.3921875 8.828125 7.8125 C9.21484375 8.534375 9.6015625 9.25625 10 10 C12.10186897 7.46326158 13.94588108 5.10147297 15.5 2.1875 C15.995 1.465625 16.49 0.74375 17 0 C18.32 0 19.64 0 21 0 C21 6.27 21 12.54 21 19 C19.68 19 18.36 19 17 19 C16.67 16.36 16.34 13.72 16 11 C14.02 13.97 14.02 13.97 12 17 C10.1875 16.8125 10.1875 16.8125 8 16 C6.25 13.4375 6.25 13.4375 5 11 C4.67 13.64 4.34 16.28 4 19 C2.68 19 1.36 19 0 19 C0 12.73 0 6.46 0 0 Z " fill="#601B2A" transform="translate(282,107)"/>
<path d="M0 0 C1.32 0 2.64 0 4 0 C6.140625 2.1875 6.140625 2.1875 8.25 5 C8.95640625 5.928125 9.6628125 6.85625 10.390625 7.8125 C10.92171875 8.534375 11.4528125 9.25625 12 10 C12.33 6.7 12.66 3.4 13 0 C14.32 0 15.64 0 17 0 C17 6.27 17 12.54 17 19 C11.80869384 17.96173877 11.26624409 17.74065446 8.1875 13.9375 C7.28064453 12.83728516 7.28064453 12.83728516 6.35546875 11.71484375 C5.90816406 11.14894531 5.46085937 10.58304688 5 10 C4.67 12.97 4.34 15.94 4 19 C2.68 19 1.36 19 0 19 C0 12.73 0 6.46 0 0 Z " fill="#601B2A" transform="translate(328,107)"/>
<path d="M0 0 C0 5.61 0 11.22 0 17 C-1.98 17 -3.96 17 -6 17 C-8.31 17.33 -10.62 17.66 -13 18 C-13 12.72 -13 7.44 -13 2 C-6 0 -6 0 0 0 Z " fill="#F3C44D" transform="translate(115,102)"/>
<path d="M0 0 C2.8100346 1.79363911 4.50940468 3.01880935 6 6 C6.69019608 13.01699346 6.69019608 13.01699346 3.9375 16.9375 C0.40171712 19.42007096 -1.68713322 20 -6 20 C-10.01519063 18.48483372 -11.60368353 17.5944747 -14 14 C-14.60192898 10.90932622 -14.60626701 8.09087914 -14 5 C-9.7878373 -0.15989931 -6.5097924 -0.92997034 0 0 Z M-8.9375 5.0625 C-10.66665678 8.21566824 -9.8590699 10.62508255 -9 14 C-6.17431454 16.32038095 -6.17431454 16.32038095 -2.9375 15.8125 C0.29740953 15.26245502 0.29740953 15.26245502 2 12 C1.65554402 7.49149818 1.65554402 7.49149818 -1 4 C-4.09771665 3.67045568 -6.17331023 3.54665399 -8.9375 5.0625 Z " fill="#601B2A" transform="translate(248,107)"/>
<path d="M0 0 C2.99559257 1.29011865 3.81502626 2.32340716 6 5 C6.79815561 8.17539605 6.76055823 10.81948378 6 14 C3.47631975 17.67080764 1.82964117 18.75864984 -2.4375 20 C-6.53094236 20 -8.59065251 19.22004022 -12 17 C-14.45665197 13.31502204 -14.70086491 10.28028214 -14 6 C-10.34689665 0.27680475 -6.69421544 -1.0537191 0 0 Z M-8.9375 5.0625 C-10.66665678 8.21566824 -9.8590699 10.62508255 -9 14 C-6.17431454 16.32038095 -6.17431454 16.32038095 -2.9375 15.8125 C0.29740953 15.26245502 0.29740953 15.26245502 2 12 C2.35384949 9.16920408 2.3920891 7.63169911 0.875 5.1875 C-2.38646439 3.12190588 -5.58060457 3.22162186 -8.9375 5.0625 Z " fill="#601B2A" transform="translate(429,107)"/>
<path d="M0 0 C0.66 0.33 1.32 0.66 2 1 C2 1.66 2 2.32 2 3 C2.99 3.33 3.98 3.66 5 4 C6.36820259 12.37405921 5.45385853 18.92749344 3 27 C2.60286145 28.41630133 2.20677418 29.83289861 1.8125 31.25 C1.544375 32.1575 1.27625 33.065 1 34 C0.34 33.67 -0.32 33.34 -1 33 C-1.59765625 30.3125 -1.59765625 30.3125 -2.0625 27 C-2.30764104 23.18188068 -2.30764104 23.18188068 -4 20 C-4.34098028 18.07360715 -4.59852341 16.13210046 -4.8125 14.1875 C-4.94269531 13.12917969 -5.07289062 12.07085937 -5.20703125 10.98046875 C-5 8 -5 8 -3.05859375 5.75390625 C-2.37925781 5.17511719 -1.69992188 4.59632812 -1 4 C-0.2127322 1.8618034 -0.2127322 1.8618034 0 0 Z " fill="#601B2A" transform="translate(113,55)"/>
<path d="M0 0 C3.96 0.33 7.92 0.66 12 1 C12 6.61 12 12.22 12 18 C8 17.33333333 4 16.66666667 0 16 C0 10.72 0 5.44 0 0 Z " fill="#F2C44D" transform="translate(116,102)"/>
<path d="M0 0 C4.95 0 9.9 0 15 0 C15 1.32 15 2.64 15 4 C11.7 4 8.4 4 5 4 C5 5.32 5 6.64 5 8 C7.97 8 10.94 8 14 8 C14 8.99 14 9.98 14 11 C11.03 11 8.06 11 5 11 C5 12.65 5 14.3 5 16 C8.3 16 11.6 16 15 16 C15 16.99 15 17.98 15 19 C10.05 19 5.1 19 0 19 C0 12.73 0 6.46 0 0 Z " fill="#601A29" transform="translate(469,107)"/>
<path d="M0 0 C4.95 0 9.9 0 15 0 C15 1.32 15 2.64 15 4 C11.7 4 8.4 4 5 4 C5 5.32 5 6.64 5 8 C7.64 8 10.28 8 13 8 C13 8.99 13 9.98 13 11 C10.36 11 7.72 11 5 11 C5 12.65 5 14.3 5 16 C8.3 16 11.6 16 15 16 C15 16.99 15 17.98 15 19 C10.05 19 5.1 19 0 19 C0 12.73 0 6.46 0 0 Z " fill="#601B2A" transform="translate(507,107)"/>
<path d="M0 0 C2.5 2 2.5 2 4 4 C3.01 4.66 2.02 5.32 1 6 C0.34 5.67 -0.32 5.34 -1 5 C-4 4.75 -4 4.75 -7 5 C-7.66 5.66 -8.32 6.32 -9 7 C-8.67673447 10.59679066 -8.67673447 10.59679066 -8 14 C-4.02245872 14.73334429 -4.02245872 14.73334429 0 15 C0 13.02 0 11.04 0 9 C1.32 9 2.64 9 4 9 C4 11.64 4 14.28 4 17 C0.59709055 19.07494479 -1.53791558 20 -5.5625 20 C-9.79504576 18.76871396 -11.46524785 17.61010155 -14 14 C-14.64643474 11.19311232 -14.62988925 8.80896558 -14 6 C-10.34950306 0.28088813 -6.70417993 -1.02020129 0 0 Z " fill="#601B29" transform="translate(500,107)"/>
<path d="M0 0 C1.32 0 2.64 0 4 0 C4.33 4.95 4.66 9.9 5 15 C6.65 15 8.3 15 10 15 C12.26954631 11.59568053 12.36549949 9.83475798 12.625 5.8125 C12.69976562 4.72582031 12.77453125 3.63914062 12.8515625 2.51953125 C12.90054687 1.68808594 12.94953125 0.85664062 13 0 C14.32 0 15.64 0 17 0 C17.10853983 2.22808159 17.18583307 4.45769932 17.25 6.6875 C17.29640625 7.92886719 17.3428125 9.17023438 17.390625 10.44921875 C16.93593599 14.58234181 15.94869006 16.13114812 13 19 C9.14448235 20.34104962 7.50052951 20.19832301 3.6875 18.6875 C1 17 1 17 0 15 C-0.0716735 12.44842345 -0.09308442 9.92527029 -0.0625 7.375 C-0.05798828 6.66859375 -0.05347656 5.9621875 -0.04882812 5.234375 C-0.03703875 3.48954725 -0.01910324 1.744763 0 0 Z " fill="#601B2A" transform="translate(307,107)"/>
<path d="M0 0 C2.6909825 1.6338108 2.79866898 4.14904876 3.75 7.0625 C5.75136244 8.48305068 5.75136244 8.48305068 7.75 9.0625 C7.75 10.0525 7.75 11.0425 7.75 12.0625 C4.34679258 11.05073563 2.99274669 10.41406418 0.9375 7.4375 C0.545625 6.65375 0.15375 5.87 -0.25 5.0625 C-0.8996875 6.238125 -0.8996875 6.238125 -1.5625 7.4375 C-3.25 10.0625 -3.25 10.0625 -6.25 12.0625 C-13.22763578 12.72703674 -13.22763578 12.72703674 -16.75 10.4375 C-18.62956836 7.46151677 -18.56424507 5.51919582 -18.25 2.0625 C-17.59773438 2.16949219 -16.94546875 2.27648437 -16.2734375 2.38671875 C-9.60242181 3.30176958 -6.00150002 0.16670833 0 0 Z " fill="#F2C44D" transform="translate(83.25,70.9375)"/>
<path d="M0 0 C2.5 2 2.5 2 4 4 C3.01 4.66 2.02 5.32 1 6 C0.34 5.67 -0.32 5.34 -1 5 C-4 4.66666667 -4 4.66666667 -7 5 C-9.28138945 7.75698184 -9.28138945 7.75698184 -8.8125 10.5625 C-8.16627558 13.33255117 -8.16627558 13.33255117 -5 15 C-2.93089407 15.02749478 -2.93089407 15.02749478 -0.8125 14.625 C0.445625 14.41875 1.70375 14.2125 3 14 C3 15.32 3 16.64 3 18 C-1.33356768 20.23244396 -4.30328735 20.25804803 -9 19 C-11.86262257 16.99007352 -13.64014872 15.56251212 -14.4453125 12.06640625 C-14.66317186 8.22481957 -14.2331958 6.36534009 -12.125 3.0625 C-8.50957454 -0.44658941 -4.89194777 -0.74442683 0 0 Z " fill="#601B2A" transform="translate(229,107)"/>
<path d="M0 0 C2.5 2 2.5 2 4 4 C3.01 4.66 2.02 5.32 1 6 C0.34 5.67 -0.32 5.34 -1 5 C-4 4.66666667 -4 4.66666667 -7 5 C-9.28138945 7.75698184 -9.28138945 7.75698184 -8.8125 10.5625 C-8.16627558 13.33255117 -8.16627558 13.33255117 -5 15 C-2.93089407 15.02749478 -2.93089407 15.02749478 -0.8125 14.625 C0.445625 14.41875 1.70375 14.2125 3 14 C3 15.32 3 16.64 3 18 C-1.32562039 20.2283499 -4.30457378 20.1951994 -9 19 C-11.3181362 17.10888889 -12.66914015 15.66171969 -14 13 C-14.39447548 8.81855989 -14.45035186 6.69053952 -12.125 3.125 C-8.53771814 -0.46228186 -4.91999743 -0.74869526 0 0 Z " fill="#601B2A" transform="translate(410,107)"/>
<path d="M0 0 C-5.0491868 4.24131692 -9.49805975 6.37516631 -16.0625 5.8125 C-19.88369633 5.28745012 -23.39979781 4.42113244 -27 3 C-19.34672865 -5.29901612 -9.55593522 -5.2123283 0 0 Z " fill="#EFC04C" transform="translate(87,67)"/>
<path d="M0 0 C1.32 0 2.64 0 4 0 C4 5.28 4 10.56 4 16 C7.3 16 10.6 16 14 16 C14 16.99 14 17.98 14 19 C9.38 19 4.76 19 0 19 C0 12.73 0 6.46 0 0 Z " fill="#601B29" transform="translate(454,107)"/>
<path d="M0 0 C1.32 0 2.64 0 4 0 C4 5.28 4 10.56 4 16 C7.3 16 10.6 16 14 16 C14 16.99 14 17.98 14 19 C9.38 19 4.76 19 0 19 C0 12.73 0 6.46 0 0 Z " fill="#601B2A" transform="translate(438,107)"/>
<path d="M0 0 C1.32 0 2.64 0 4 0 C4 6.27 4 12.54 4 19 C2.68 19 1.36 19 0 19 C0 12.73 0 6.46 0 0 Z " fill="#601B2A" transform="translate(349,107)"/>
<path d="M0 0 C0.99 0.66 1.98 1.32 3 2 C2.67 3.32 2.34 4.64 2 6 C-4.3187251 7.21513944 -4.3187251 7.21513944 -7.375 6.25 C-9 5 -9 5 -10 2 C-6.31282562 -0.45811625 -4.35654296 -0.31118164 0 0 Z " fill="#F6C84E" transform="translate(122,8)"/>
<path d="M0 0 C0.99 0.66 1.98 1.32 3 2 C2.4375 3.9375 2.4375 3.9375 1 6 C-2.57474656 6.92678615 -4.9492992 7.40411569 -8.4375 6.0625 C-8.953125 5.711875 -9.46875 5.36125 -10 5 C-7.66670505 -0.16658167 -5.58295061 -0.3418133 0 0 Z " fill="#F6C74E" transform="translate(74,8)"/>
<path d="M0 0 C0.3403125 0.8971875 0.3403125 0.8971875 0.6875 1.8125 C1.89660151 4.21911415 1.89660151 4.21911415 4.625 5.5625 C5.40875 6.036875 6.1925 6.51125 7 7 C7 7.99 7 8.98 7 10 C3.72518425 9.02640613 2.23794891 8.30933359 0.125 5.5625 C-1 3 -1 3 0 0 Z " fill="#CC9844" transform="translate(84,73)"/>
</svg>
